<?xml version="1.0" standalone="no"?>
<!DOCTYPE svg PUBLIC "-//W3C//DTD SVG 20010904//EN"
 "http://www.w3.org/TR/2001/REC-SVG-20010904/DTD/svg10.dtd">
<svg version="1.0" xmlns="http://www.w3.org/2000/svg"
 width="768.000000pt" height="768.000000pt" viewBox="0 0 768.000000 768.000000"
 preserveAspectRatio="xMidYMid meet">
<metadata>
Created by potrace 1.14, written by Peter Selinger 2001-2017
</metadata>
<g transform="translate(0.000000,768.000000) scale(0.100000,-0.100000)"
fill="#000000" stroke="none">
<path d="M929 7663 c0 -10 -2 -26 -4 -36 -2 -9 -6 -86 -10 -170 -8 -199 -11
-217 -36 -217 -11 0 -18 -4 -15 -8 2 -4 -4 -14 -16 -21 -16 -10 -18 -10 -12 0
5 9 2 10 -9 6 -10 -3 -17 -3 -17 2 0 4 -7 8 -16 8 -12 0 -11 -5 7 -17 l22 -18
-49 -50 c-27 -28 -60 -65 -74 -83 -14 -17 -35 -41 -48 -52 -13 -12 -20 -28
-17 -36 3 -9 3 -12 -1 -8 -4 4 -16 0 -26 -9 -17 -16 -18 -14 -17 37 1 30 7 57
13 61 7 5 6 8 -4 8 -12 0 -12 2 -1 9 10 7 11 13 2 30 -7 12 -16 19 -20 17 -5
-3 -7 16 -5 42 1 26 0 41 -2 34 -3 -6 -9 -10 -12 -8 -4 2 -8 -27 -9 -65 -2
-53 0 -68 10 -63 9 6 9 5 0 -7 -7 -9 -11 -38 -9 -72 2 -31 -1 -57 -5 -57 -5 0
-9 -8 -8 -17 0 -11 3 -13 6 -5 2 6 9 12 15 12 7 0 6 -5 -2 -14 -6 -8 -19 -12
-28 -9 -14 5 -15 3 -5 -7 9 -10 6 -20 -14 -47 -25 -32 -27 -33 -34 -15 -4 11
1 69 11 129 25 148 39 239 46 298 3 28 7 57 10 67 3 9 0 19 -6 23 -5 3 -8 18
-5 33 3 15 2 21 -1 15 -3 -7 -15 -13 -27 -13 -20 -1 -21 -2 -5 -14 15 -11 15
-16 4 -32 -7 -10 -21 -46 -31 -79 -9 -33 -21 -71 -25 -85 -4 -14 -16 -53 -26
-87 -11 -35 -23 -63 -28 -63 -4 0 -5 -7 -2 -16 3 -8 2 -12 -4 -9 -6 3 -10 -2
-10 -12 0 -10 -9 -49 -19 -88 -35 -132 -80 -300 -90 -335 -7 -22 -7 -38 -1
-44 14 -14 12 -26 -5 -26 -18 0 -19 -12 -4 -27 13 -13 3 -36 -12 -28 -5 4 -9
0 -9 -7 0 -8 -6 -22 -13 -32 -13 -17 -18 -17 -107 -2 -51 9 -99 16 -107 16
-10 0 -13 -40 -13 -195 l0 -195 68 1 c37 1 96 -6 131 -16 45 -11 67 -13 74 -6
16 16 96 13 157 -5 30 -9 69 -14 87 -11 18 3 35 1 39 -5 3 -5 15 -7 26 -5 14
4 16 2 9 -6 -7 -9 0 -12 24 -11 46 1 201 -21 250 -36 22 -6 114 -24 205 -40
107 -19 141 -27 96 -24 -38 3 -74 8 -79 11 -5 3 -7 0 -5 -8 3 -8 11 -13 18
-11 10 2 11 -1 3 -10 -6 -7 -10 -21 -10 -31 0 -13 6 -16 21 -11 12 3 26 11 31
17 7 7 5 8 -7 4 -10 -3 -20 -2 -23 3 -8 13 41 13 64 1 9 -5 23 -6 31 -1 16 10
42 2 34 -11 -3 -5 2 -9 11 -9 10 0 13 5 9 11 -5 9 1 10 22 5 16 -4 42 -10 57
-13 17 -3 26 -10 23 -18 -2 -7 3 -12 12 -11 14 1 17 -7 15 -39 -2 -22 -8 -51
-15 -65 -19 -36 -88 -105 -88 -87 0 10 -7 14 -22 10 -17 -3 -19 -2 -10 5 11 7
9 10 -7 15 -11 3 -25 0 -30 -7 -12 -14 -61 -19 -61 -6 0 5 6 7 14 4 8 -3 15 4
18 19 4 18 0 23 -16 23 -12 -1 -24 -5 -28 -11 -5 -7 -14 -6 -26 2 -12 7 -24 8
-33 2 -11 -7 -11 -9 4 -9 9 0 17 -4 17 -10 0 -15 -16 -12 -33 5 -12 11 -17 12
-20 2 -4 -9 -6 -9 -6 1 -1 7 13 18 30 24 37 13 24 24 -36 31 -22 3 -59 9 -82
12 -31 6 -43 4 -43 -5 0 -7 6 -10 14 -7 14 6 30 -18 21 -32 -2 -5 6 -13 18
-18 79 -36 100 -50 103 -66 2 -12 -2 -17 -11 -13 -9 3 -12 0 -9 -9 3 -8 14
-17 25 -20 11 -4 16 -11 12 -18 -4 -7 2 -5 12 3 11 9 16 10 11 3 -4 -8 -1 -13
9 -13 9 0 13 -5 10 -10 -3 -6 -17 -7 -30 -4 -12 3 -26 1 -29 -5 -4 -6 -12 -11
-17 -11 -6 0 -7 5 -3 12 4 7 3 8 -4 4 -7 -4 -12 -14 -12 -22 0 -14 -10 -18
-42 -15 -10 1 -18 -4 -18 -12 0 -8 -10 -19 -22 -25 -20 -10 -18 -11 16 -5 l38
6 -8 -34 c-9 -40 -12 -98 -13 -231 -1 -92 -2 -98 -22 -98 -18 0 -20 4 -15 33
6 29 5 30 -4 7 -8 -17 -8 -32 -1 -48 15 -31 14 -45 -1 -36 -10 6 -10 4 0 -7
14 -15 16 -33 3 -25 -5 3 -12 -5 -15 -19 -4 -14 -11 -25 -17 -25 -6 0 -7 5 -4
10 3 6 1 10 -4 10 -6 0 -11 -9 -11 -21 0 -15 5 -19 15 -15 12 4 15 -3 15 -34
0 -29 -4 -40 -15 -40 -12 0 -15 -14 -15 -67 0 -48 -3 -64 -10 -53 -8 13 -10
12 -11 -5 -1 -11 -1 -24 0 -29 1 -4 -1 -17 -4 -27 -9 -26 -33 -3 -29 29 1 14
-2 22 -9 19 -7 -2 -13 -15 -13 -28 -3 -54 -4 -60 -14 -54 -6 3 -7 -1 -4 -9 8
-21 24 -10 24 15 0 10 4 19 9 19 6 0 6 -12 1 -30 -5 -18 -5 -30 1 -30 5 0 9
-7 9 -15 0 -8 -7 -15 -15 -15 -8 0 -15 -4 -15 -10 0 -5 6 -7 13 -4 8 3 14 -2
14 -10 0 -8 -3 -13 -7 -11 -3 2 -12 -1 -20 -6 -13 -8 -12 -11 3 -23 22 -17 22
-21 -3 -23 -11 -1 -18 2 -15 8 4 5 0 9 -8 9 -10 0 -13 -7 -10 -20 3 -11 1 -20
-4 -20 -12 0 -13 31 -2 46 6 7 3 16 -6 24 -8 7 -12 16 -9 21 6 11 -17 69 -28
69 -5 0 -7 3 -7 8 4 21 -2 52 -9 50 -10 -4 -72 53 -72 66 0 4 9 6 19 3 14 -3
19 0 18 13 -1 10 -5 18 -10 17 -8 -2 -92 139 -104 176 -3 9 -9 17 -13 17 -4 0
-13 14 -20 31 -14 33 -26 29 -32 -11 -2 -16 -14 13 -36 85 -18 61 -47 147 -63
192 -34 92 -33 89 -31 231 l2 103 38 -6 c36 -7 49 -11 143 -54 53 -23 213 -71
239 -71 14 0 48 40 68 82 2 3 -23 12 -54 18 -74 16 -126 40 -120 57 3 7 2 12
-2 10 -4 -1 -19 9 -32 21 -43 40 -260 137 -260 115 0 -2 12 -8 28 -14 26 -11
26 -11 6 -19 -29 -11 -100 -5 -118 9 -8 7 -18 11 -22 10 -5 -1 -22 3 -39 10
-16 6 -36 14 -43 16 -6 2 -12 9 -12 15 0 5 -7 10 -15 10 -8 0 -15 6 -15 13 0
8 -12 19 -26 25 -14 7 -22 17 -19 22 3 6 1 11 -4 11 -6 1 -15 3 -21 4 -5 1
-13 3 -17 4 -5 1 -2 5 6 10 11 7 7 12 -15 24 -75 38 -74 39 -74 -67 0 -52 3
-97 8 -99 4 -3 25 -8 47 -11 28 -4 36 -3 25 4 -8 5 -10 10 -5 10 6 0 17 -6 24
-12 11 -11 14 -10 18 0 3 6 9 9 14 6 6 -3 16 0 24 6 10 9 19 9 32 0 15 -9 14
-10 -7 -4 -24 6 -24 6 -9 -12 9 -11 14 -25 12 -31 -3 -7 0 -13 7 -13 8 0 8 -5
0 -21 -7 -11 -9 -23 -6 -27 3 -3 6 -1 6 4 0 4 7 -2 16 -15 13 -17 14 -25 5
-34 -9 -9 -11 -8 -6 4 4 10 0 16 -9 16 -12 0 -13 -4 -3 -21 6 -12 10 -28 8
-35 -2 -12 0 -13 12 -2 18 14 33 -2 20 -21 -4 -7 -9 -21 -10 -32 -3 -15 -1
-16 11 -7 10 9 16 9 21 1 4 -6 4 -14 1 -17 -3 -4 -6 0 -6 8 0 11 -2 11 -10 -1
-14 -21 -12 -43 2 -34 8 5 9 2 5 -9 -4 -10 -2 -17 4 -17 6 0 9 -9 6 -20 -3
-11 -2 -18 2 -16 4 3 13 1 21 -4 13 -8 13 -13 2 -31 -12 -18 -12 -21 0 -17 10
4 13 -4 12 -31 -1 -20 1 -40 4 -46 4 -5 7 -16 7 -24 0 -17 25 -28 25 -11 0 6
-4 9 -9 6 -5 -4 -7 3 -4 15 6 20 7 20 16 4 7 -13 6 -24 -2 -36 -6 -11 -11 -26
-11 -35 0 -14 2 -15 17 -3 14 12 15 12 9 0 -5 -7 -4 -16 1 -20 15 -9 28 -55
14 -47 -6 4 -11 1 -11 -8 0 -8 5 -18 12 -22 7 -4 8 -3 4 4 -4 7 -2 12 3 12 6
0 11 -6 11 -14 0 -8 3 -23 6 -33 6 -16 5 -16 -10 2 -16 19 -16 19 -6 -7 5 -16
8 -28 5 -28 -2 0 2 -12 10 -27 8 -15 11 -31 8 -36 -3 -6 -1 -7 5 -3 7 4 12 0
12 -10 0 -9 7 -22 16 -29 9 -6 17 -26 18 -42 0 -17 5 -29 10 -25 5 3 7 -5 4
-16 -4 -12 -3 -20 2 -17 4 3 13 -15 19 -39 6 -24 13 -52 17 -62 5 -16 4 -16
-5 -4 -8 11 -11 11 -11 2 0 -7 7 -15 15 -18 8 -4 15 -14 15 -23 0 -14 -2 -14
-11 -1 -8 12 -9 11 -5 -5 6 -21 24 -108 33 -160 3 -16 14 -56 25 -90 38 -117
39 -131 7 -172 -21 -26 -38 -36 -61 -39 -18 -1 -44 -5 -58 -9 -44 -12 -163
-18 -157 -8 3 5 -1 22 -9 38 -15 32 -54 136 -84 225 -10 30 -51 147 -90 260
-39 113 -77 221 -83 240 -10 28 -13 -105 -15 -649 -1 -376 -1 -686 1 -687 2
-2 43 8 92 22 50 13 145 35 213 49 68 13 143 33 168 44 52 24 121 26 103 4
-13 -15 -33 -18 -24 -3 3 6 2 10 -3 10 -6 0 -12 -6 -15 -14 -7 -19 23 -26 43
-11 18 14 113 52 155 61 l30 7 -23 -25 -23 -26 43 8 c24 5 45 7 46 5 2 -2 -20
-15 -50 -29 -35 -17 -43 -24 -23 -19 17 3 62 21 101 40 39 18 82 33 95 33 24
-1 24 -1 -4 -16 -15 -8 -33 -12 -39 -8 -7 4 -8 3 -4 -4 6 -11 -6 -16 -26 -13
-5 0 -8 -4 -8 -10 0 -5 -4 -7 -10 -4 -6 4 -7 -1 -3 -11 5 -15 2 -16 -25 -11
-20 4 -32 2 -32 -4 0 -6 -7 -9 -15 -6 -8 4 -17 2 -20 -3 -11 -17 -96 -49 -148
-56 -29 -4 -57 -11 -64 -16 -7 -5 -12 -5 -15 2 -2 7 -28 -2 -66 -24 -34 -19
-65 -35 -67 -36 -45 -6 -65 -14 -53 -21 7 -5 9 -9 3 -9 -5 0 -16 4 -23 9 -9 5
2 13 35 26 48 18 76 35 57 35 -12 0 -115 -37 -122 -45 -3 -3 -1 -5 4 -5 5 0
-4 -7 -20 -15 -15 -8 -31 -13 -35 -11 -10 6 -63 -29 -61 -40 1 -5 -4 -10 -11
-13 -7 -2 -9 1 -5 8 9 14 0 14 -25 1 -10 -6 -19 -17 -19 -24 0 -7 -12 -18 -27
-25 -24 -10 -26 -10 -10 2 26 21 21 27 -12 14 -17 -6 -27 -15 -24 -20 3 -5 -4
-6 -16 -2 l-21 6 3 -1333 c3 -733 5 -1342 6 -1353 2 -36 33 -169 48 -206 11
-30 19 -36 36 -32 20 4 20 3 5 -7 -17 -10 -17 -13 -3 -40 9 -17 20 -30 25 -30
5 0 7 -6 4 -13 -2 -7 5 -22 16 -34 11 -12 20 -26 20 -31 0 -10 33 -42 44 -42
4 0 5 3 3 8 -3 4 -8 45 -11 92 -4 47 -9 99 -12 116 -4 19 -1 35 6 39 6 4 8 15
5 25 -5 15 -1 19 24 18 40 -1 64 19 57 48 -4 13 -1 24 7 27 9 4 9 6 0 6 -6 1
-15 -3 -18 -9 -3 -5 -14 -10 -23 -10 -9 0 3 12 27 25 24 14 47 22 50 17 7 -12
51 3 51 17 0 5 9 13 20 16 11 3 20 11 20 16 0 6 -5 7 -10 4 -6 -3 -10 -2 -10
3 0 6 7 12 15 16 9 3 15 0 15 -9 0 -17 18 -19 39 -6 12 8 12 12 2 25 -14 17
-5 21 23 10 9 -3 13 -10 10 -15 -3 -5 0 -9 5 -9 6 0 11 9 11 20 0 13 -5 18
-15 14 -28 -11 -15 5 17 22 18 9 48 32 67 50 36 33 55 38 30 8 -13 -16 -12
-17 9 -12 20 6 22 4 10 -10 -11 -13 -11 -15 4 -9 12 4 15 2 11 -8 -3 -8 -10
-12 -16 -8 -6 4 -7 1 -2 -7 6 -10 12 -8 26 8 9 12 20 22 23 22 10 0 61 55 58
63 -1 5 2 6 8 2 16 -10 12 11 -5 25 -13 11 -18 10 -31 -6 -15 -19 -15 -19 -10
0 6 16 4 17 -9 6 -8 -7 -15 -8 -15 -2 0 27 55 40 64 15 3 -8 10 -11 16 -8 5 3
10 1 10 -5 0 -6 5 -8 10 -5 18 11 11 -3 -15 -31 -13 -14 -22 -31 -18 -37 3 -6
10 0 15 14 8 22 10 22 19 6 6 -9 14 -15 20 -12 5 4 9 4 9 0 0 -5 -46 -27 -62
-29 -3 -1 -10 -5 -15 -10 -5 -5 -3 -6 5 -2 6 4 12 2 12 -3 0 -6 3 -10 8 -10
20 3 32 -2 27 -12 -4 -6 -13 -8 -20 -5 -7 2 -21 -5 -32 -16 -18 -21 -18 -21 5
-9 13 7 26 10 29 7 11 -11 41 35 36 54 -6 24 12 27 21 3 4 -10 -2 -25 -15 -40
-13 -12 -18 -23 -12 -23 5 0 15 -11 21 -25 15 -32 15 -35 0 -35 -6 0 -8 3 -5
7 4 3 -2 13 -14 21 -18 12 -22 12 -38 -7 -10 -12 -25 -21 -32 -21 -11 0 -11 2
1 10 13 8 12 10 -2 10 -19 0 -24 -15 -8 -25 5 -3 7 -12 3 -20 -6 -17 15 -20
37 -4 12 8 9 9 -10 4 -23 -6 -24 -5 -7 8 10 8 27 13 37 10 18 -5 18 -7 -8 -26
-15 -12 -30 -25 -33 -30 -3 -4 -10 -7 -15 -6 -22 4 -33 -2 -28 -16 5 -11 0
-15 -17 -14 -13 0 -18 3 -12 6 7 2 13 11 13 18 0 7 7 15 15 19 8 3 15 11 15
17 0 9 -3 9 -14 0 -11 -9 -15 -9 -20 1 -4 9 -5 9 -5 -2 2 -31 -1 -40 -15 -40
-8 0 -17 6 -19 13 -3 6 -6 7 -6 1 -1 -5 8 -20 19 -32 19 -20 12 -40 -10 -27
-5 3 -8 0 -5 -7 6 -17 -51 -51 -90 -55 -43 -3 -99 -11 -105 -14 -3 -1 -16 -2
-30 -3 -20 -1 -25 -6 -23 -27 1 -17 -4 -26 -14 -26 -9 0 -13 7 -10 17 4 15 2
16 -23 4 -15 -8 -35 -24 -46 -36 -10 -12 -13 -18 -7 -14 7 4 13 2 13 -3 0 -6
-6 -11 -12 -11 -7 0 -5 -5 5 -11 13 -8 22 -7 33 2 8 6 18 9 21 5 4 -4 1 -11
-7 -16 -8 -5 -12 -12 -8 -15 3 -3 13 1 22 10 10 10 16 12 16 5 0 -7 7 -9 16
-6 14 5 15 4 4 -9 -7 -9 -19 -14 -26 -11 -7 3 -16 0 -20 -6 -4 -7 -3 -8 4 -4
7 4 12 5 12 3 0 -3 -27 -24 -60 -48 -33 -24 -62 -50 -65 -57 -7 -19 131 -127
222 -172 l82 -40 78 60 c64 49 84 59 108 55 17 -2 24 -2 17 1 -18 8 4 34 30
34 10 0 17 4 13 9 -3 5 0 13 6 17 8 4 9 3 5 -4 -4 -7 0 -12 10 -12 18 0 -79
-102 -146 -153 -19 -14 -32 -28 -29 -31 8 -8 207 -26 291 -26 l81 0 56 48 c30
26 130 119 221 207 91 88 230 221 310 295 80 74 178 166 217 204 40 38 76 66
80 63 3 -4 1 -7 -5 -7 -7 0 -12 -5 -12 -11 0 -5 5 -7 10 -4 5 3 10 2 10 -4 0
-5 -5 -13 -10 -16 -5 -3 -10 -1 -10 4 0 6 -4 11 -10 11 -5 0 -10 -10 -10 -23
0 -13 -6 -29 -13 -36 -10 -10 -9 -11 6 -6 9 4 17 15 17 24 0 10 9 17 21 18 17
2 19 -1 10 -10 -6 -6 -11 -16 -11 -21 0 -6 4 -4 10 4 5 8 11 12 14 9 8 -7 -88
-110 -221 -239 -59 -58 -200 -196 -313 -307 l-204 -203 48 0 48 0 224 225
c206 207 256 251 240 209 -3 -9 -2 -12 5 -9 6 4 8 13 5 21 -5 14 141 164 168
173 6 2 1 -5 -11 -16 -13 -11 -20 -22 -18 -25 3 -3 -6 -13 -20 -22 -14 -9 -25
-21 -25 -27 0 -5 14 1 31 13 25 19 31 20 39 8 5 -8 6 -18 4 -22 -9 -14 7 -9
23 7 8 8 19 13 24 10 5 -4 9 1 9 9 0 9 -7 16 -15 16 -8 0 -15 -4 -15 -10 0 -5
-5 -10 -10 -10 -6 0 -6 7 2 19 6 10 17 17 24 14 7 -3 13 9 16 31 2 19 0 32 -4
30 -14 -9 -9 15 11 47 11 17 17 38 14 45 -3 8 0 14 6 14 6 0 11 -6 11 -12 0
-9 3 -9 9 1 16 24 24 -70 18 -210 -2 -77 -1 -129 5 -129 5 0 6 5 2 12 -4 6 -3
8 4 5 5 -4 8 -16 5 -28 -4 -13 -8 -16 -13 -9 -4 6 -6 -5 -6 -24 1 -33 16 -42
16 -9 0 9 3 14 6 10 4 -3 -1 -25 -10 -49 -14 -36 -14 -40 -1 -24 14 19 15 18
15 -15 0 -19 -6 -44 -14 -55 -17 -24 -39 -100 -38 -134 0 -19 -5 -26 -20 -27
-21 -2 -58 -30 -58 -45 0 -4 1089 -8 2419 -8 l2419 0 30 48 c17 26 40 67 51
92 19 45 19 46 1 126 -35 151 -130 364 -264 593 -37 63 -65 120 -62 128 3 8 2
11 -4 8 -5 -3 -32 34 -61 82 -28 49 -60 99 -70 112 -24 31 -24 37 4 45 21 7
21 7 2 16 -14 6 -16 9 -5 10 8 2 18 2 22 1 4 0 4 7 1 16 -4 9 1 21 12 29 22
17 39 18 30 3 -4 -6 2 -5 13 2 12 7 18 18 14 24 -3 5 2 4 11 -3 9 -8 22 -10
29 -6 7 4 4 -3 -7 -17 -20 -24 -20 -24 0 -9 39 29 44 38 50 96 10 95 15 75 10
-42 -4 -84 -2 -101 6 -76 8 27 14 32 29 27 14 -4 20 -2 20 9 0 9 -5 16 -11 16
-6 0 -9 7 -5 15 3 8 3 15 0 15 -2 0 -9 -10 -14 -22 -8 -22 -9 -22 -9 -2 -1 11
5 26 12 33 10 11 10 13 0 7 -7 -4 -13 -2 -13 3 0 6 4 11 9 11 5 0 12 7 15 16
5 13 4 14 -7 5 -12 -9 -14 -1 -13 49 1 33 7 65 14 72 6 6 12 19 12 27 0 11 -3
11 -13 -3 -13 -18 -14 -18 -14 0 0 11 5 22 11 26 8 5 7 8 -1 8 -7 0 -10 7 -7
15 4 8 10 12 15 9 5 -3 9 -1 9 5 0 5 -6 12 -12 14 -9 4 -9 8 -3 14 6 4 17 21
25 37 l15 29 6 -29 c8 -35 8 -34 15 41 5 54 4 58 -10 41 -14 -17 -15 -17 -11
10 2 16 4 31 4 34 1 3 6 -2 11 -10 7 -11 10 -5 11 25 1 22 3 45 4 50 11 70 16
138 17 214 0 55 4 87 9 79 6 -9 9 -9 9 -1 0 7 19 50 41 97 38 78 44 85 65 80
18 -5 24 -2 24 11 0 9 5 13 10 10 6 -4 30 5 55 19 48 29 60 32 49 14 -4 -6 8
0 27 14 46 36 60 20 60 -69 0 -44 5 -70 15 -80 12 -13 14 -10 14 21 0 19 5 38
12 42 7 5 9 1 6 -13 -4 -14 -1 -20 10 -19 9 0 18 -9 21 -20 6 -20 7 -21 21 -6
8 9 13 19 11 22 -3 3 3 7 13 8 15 3 16 0 7 -15 -8 -15 -7 -20 4 -20 8 0 12 4
9 9 -3 4 -1 8 5 8 5 0 12 -6 14 -12 3 -7 6 -2 6 12 1 19 4 21 10 11 5 -8 16
-11 26 -8 9 4 14 11 11 16 -3 5 3 7 14 4 11 -3 20 -12 20 -21 0 -13 3 -13 19
2 20 18 39 6 25 -16 -4 -7 -3 -8 4 -4 7 4 12 15 12 24 0 26 25 92 42 112 9 9
21 34 28 54 8 27 16 36 28 32 17 -4 137 -19 137 -17 0 1 23 -5 50 -14 65 -19
65 -19 65 9 0 15 -7 26 -17 29 -17 4 -17 5 -1 6 17 1 18 114 18 2189 0 1390
-4 2219 -10 2274 -43 379 -329 664 -708 708 -56 6 -1144 10 -3059 10 -2825 0
-2973 -1 -2974 -17z m2342 -485 c-3 -26 -6 -34 -9 -20 -2 12 -8 22 -13 22 -5
0 -9 10 -8 23 0 21 1 21 9 2 7 -17 9 -16 9 10 1 18 4 25 9 18 4 -7 5 -31 3
-55z m-2371 18 c0 -2 -7 -6 -15 -10 -8 -3 -15 -1 -15 4 0 6 7 10 15 10 8 0 15
-2 15 -4z m2277 -18 c-3 -8 -6 -5 -6 6 -1 11 2 17 5 13 3 -3 4 -12 1 -19z
m-2327 -13 c-7 -9 -15 -13 -19 -10 -3 3 1 10 9 15 21 14 24 12 10 -5z m-10
-58 c0 -4 -6 -2 -14 5 -8 7 -12 17 -9 22 5 8 23 -12 23 -27z m2407 18 c0 -8
-4 -15 -9 -15 -10 0 -11 14 -1 23 9 10 10 9 10 -8z m-2454 -37 c-2 -5 1 -8 7
-8 6 0 8 -4 5 -10 -8 -13 -31 8 -32 32 -1 14 1 15 12 5 7 -6 11 -15 8 -19z
m-213 8 c0 -3 -4 -8 -10 -11 -5 -3 -10 -1 -10 4 0 6 5 11 10 11 6 0 10 -2 10
-4z m311 -62 c-2 -53 -26 -87 -43 -63 -8 11 -9 10 -4 -5 5 -14 -16 -39 -88
-108 -66 -63 -93 -95 -89 -106 4 -13 3 -14 -5 -3 -8 11 -13 8 -27 -13 -17 -25
-45 -36 -45 -16 0 5 8 7 18 3 14 -5 13 -3 -3 10 -11 8 -22 11 -25 7 -3 -5 -12
-5 -20 0 -13 8 -12 10 3 10 9 0 17 5 17 11 0 5 -5 7 -12 3 -7 -4 -8 -3 -4 4
11 18 36 15 30 -3 -4 -8 -1 -15 5 -15 6 0 11 2 11 4 0 2 3 11 6 20 4 11 0 16
-12 16 -18 1 -18 1 1 12 26 15 36 30 30 46 -3 7 3 16 13 19 28 10 69 48 65 60
-2 6 5 14 16 18 12 3 21 12 22 18 1 13 131 127 138 121 3 -3 4 -25 2 -50z
m2326 34 c-3 -8 -6 -5 -6 6 -1 11 2 17 5 13 3 -3 4 -12 1 -19z m-2467 -18 c-5
-10 -6 -20 -3 -24 3 -3 -8 -19 -25 -36 -18 -17 -32 -32 -32 -34 0 -2 -17 -22
-38 -45 -39 -43 -59 -51 -59 -26 0 9 6 14 13 11 8 -3 11 0 7 10 -3 9 1 14 12
14 9 0 13 4 10 10 -3 5 9 26 27 46 18 20 32 42 30 48 -2 6 0 8 4 3 9 -8 46 22
39 33 -2 4 2 7 10 7 10 0 11 -5 5 -17z m24 -5 c-4 -8 -11 -15 -16 -15 -6 0 -5
6 2 15 7 8 14 15 16 15 2 0 1 -7 -2 -15z m2486 -25 c0 -22 -2 -40 -4 -40 -2 0
-6 18 -8 40 -2 22 0 40 4 40 5 0 8 -18 8 -40z m-593 -10 c10 -17 23 -28 30
-26 6 3 17 -3 25 -12 12 -15 11 -16 -4 -3 -10 7 -18 11 -18 9 0 -11 34 -73 43
-79 10 -7 10 -199 0 -225 -21 -55 -43 47 -24 113 8 26 7 31 -5 26 -10 -4 -12
0 -8 13 5 14 4 16 -5 8 -6 -6 -14 -34 -18 -64 l-6 -53 -16 29 c-8 16 -16 47
-17 69 -1 22 -5 58 -9 80 -8 48 -8 39 -6 98 1 54 12 60 38 17z m-910 -22 c-3
-7 -5 -2 -5 12 0 14 2 19 5 13 2 -7 2 -19 0 -25z m49 -33 c1 -14 -1 -25 -5
-25 -4 0 -8 14 -9 32 -3 37 10 31 14 -7z m1382 -2 c-10 -2 -26 -2 -35 0 -10 3
-2 5 17 5 19 0 27 -2 18 -5z m49 1 c-3 -3 -12 -4 -19 -1 -8 3 -5 6 6 6 11 1
17 -2 13 -5z m-162 -140 c0 -106 -12 -455 -18 -554 -2 -21 3 -25 31 -27 19 -2
41 1 51 7 38 20 140 -62 142 -114 1 -24 3 -26 6 -8 2 12 11 22 20 22 14 0 15
-18 10 -157 -9 -224 -16 -614 -11 -575 3 17 7 32 10 32 8 0 59 -34 66 -45 5
-6 8 -5 8 3 0 15 90 13 103 -3 6 -7 10 -6 13 1 4 10 34 8 169 -11 28 -4 57
-11 66 -15 8 -5 20 -5 27 -1 6 4 42 4 79 0 37 -4 97 -10 133 -13 l65 -7 40 88
c22 48 72 135 110 193 39 58 75 116 81 130 35 76 222 275 339 359 62 45 57 32
-7 -16 -79 -60 -238 -223 -287 -295 l-44 -63 89 86 c49 47 112 105 139 129 28
24 95 86 150 138 91 86 96 93 55 72 -54 -27 -47 -19 50 53 41 31 122 79 180
107 58 28 95 48 83 45 -14 -4 -23 -2 -23 4 0 6 8 11 18 11 13 0 14 2 3 9 -11
7 -11 10 0 17 8 4 14 3 17 -5 3 -9 8 -8 21 3 9 9 29 14 46 12 43 -5 43 -5 10
-22 -16 -8 -22 -12 -11 -9 10 3 47 11 82 17 35 7 64 16 64 20 0 5 37 8 83 8
60 -1 93 -6 122 -20 22 -11 49 -20 60 -20 25 -1 104 -36 128 -57 13 -13 20
-14 29 -5 16 16 29 15 22 -2 -6 -15 30 -15 126 -2 45 6 45 6 -15 -16 -37 -13
-54 -23 -45 -27 39 -15 205 -159 246 -212 55 -72 121 -204 157 -314 61 -187
114 -440 128 -618 13 -156 5 -457 -13 -507 -12 -33 -97 -180 -104 -180 -6 0
49 116 65 134 9 11 10 16 4 12 -8 -4 -13 -1 -13 8 0 9 3 16 8 16 4 0 13 9 20
21 8 12 9 18 3 14 -6 -3 -11 -1 -11 4 0 6 4 11 9 11 5 0 11 9 14 20 3 12 1 18
-5 14 -6 -4 -8 1 -5 12 3 11 8 110 12 220 5 161 3 223 -10 310 -29 199 -33
191 -34 -76 -1 -165 3 -260 9 -266 8 -8 7 -19 0 -39 -6 -15 -12 -51 -14 -79
-2 -28 -8 -60 -12 -70 -5 -14 -4 -17 4 -12 7 4 12 18 12 32 0 13 4 24 9 24 5
0 7 -12 4 -27 -3 -16 -7 -37 -8 -48 -2 -11 -4 -20 -5 -20 -1 0 -3 -9 -5 -19
-2 -11 -7 -31 -11 -45 -4 -14 -8 -30 -8 -36 -1 -5 -8 -10 -16 -10 -8 0 -19
-10 -25 -22 -5 -13 -15 -25 -22 -27 -22 -9 -15 8 18 44 19 20 33 47 34 66 2
18 8 43 15 56 10 21 10 21 -3 6 -8 -10 -22 -18 -31 -18 -18 0 -19 -29 -1 -42
14 -10 0 -19 -19 -12 -11 4 -15 13 -11 25 4 11 3 19 -2 19 -8 0 -73 -183 -73
-204 0 -4 5 -4 10 -1 6 3 10 1 10 -6 0 -7 20 7 44 31 24 25 42 49 39 54 -4 5
-1 6 5 2 9 -5 8 -16 -3 -42 -8 -19 -12 -41 -8 -50 3 -8 2 -14 -3 -13 -5 1 -16
1 -24 0 -12 -1 -11 -4 3 -12 15 -9 22 -7 34 10 11 17 22 21 46 17 30 -4 31 -4
13 10 -11 8 -24 14 -29 14 -4 0 -5 5 -2 10 4 6 11 7 17 4 7 -4 8 -2 4 4 -4 6
0 24 8 39 8 16 15 23 16 16 0 -6 3 -19 7 -29 4 -12 3 -15 -5 -10 -7 4 -12 1
-12 -7 0 -11 11 -14 40 -13 33 2 49 10 85 46 l44 43 19 -44 c11 -24 22 -55 26
-69 20 -70 111 -353 131 -410 13 -36 31 -90 40 -120 9 -30 37 -113 61 -185 25
-71 45 -136 46 -142 1 -7 5 -13 10 -13 4 0 9 21 9 48 6 239 9 311 20 472 6
102 12 191 12 198 1 20 17 14 27 -10 8 -21 15 -11 11 17 -1 6 5 2 12 -7 15
-20 37 -24 37 -8 0 6 7 7 18 1 9 -5 31 -15 47 -22 17 -8 41 -24 55 -37 14 -12
33 -25 43 -28 15 -5 17 -19 17 -107 0 -56 -7 -217 -15 -357 -13 -240 -34 -754
-34 -865 0 -62 45 181 55 295 4 41 8 77 10 79 4 4 8 -104 5 -121 -2 -13 27 -9
32 5 3 6 6 -5 6 -26 1 -21 -4 -47 -9 -58 -6 -11 -7 -19 -3 -18 21 4 24 -3 11
-23 -8 -13 -15 -43 -17 -67 -1 -23 -14 -72 -27 -108 -26 -68 -25 -90 2 -57 15
18 15 18 5 -3 -6 -12 -17 -27 -24 -35 -23 -24 -59 -88 -49 -88 6 0 25 17 42
38 21 24 30 30 26 17 -2 -11 -8 -57 -12 -102 -4 -46 -11 -83 -15 -83 -5 0 -9
5 -9 11 0 5 -5 7 -11 4 -6 -4 -13 2 -16 14 -3 12 -9 21 -14 21 -16 0 -111 99
-104 109 3 6 1 11 -4 11 -6 0 -11 6 -11 13 0 8 -25 31 -55 52 -30 20 -55 40
-55 43 0 2 8 11 18 19 44 37 -94 -48 -181 -111 -197 -143 -201 -145 -209 -132
-23 40 -115 338 -116 374 -1 23 -9 56 -17 72 -8 16 -15 36 -15 44 0 31 -24 26
-108 -22 -91 -52 -148 -82 -155 -82 -3 0 -8 11 -11 25 -3 13 -17 41 -31 61
-14 20 -25 42 -25 48 0 6 -17 20 -38 31 -22 12 -38 29 -40 42 -2 12 -11 27
-20 35 -15 11 -15 11 -5 -3 10 -12 9 -27 -2 -69 -8 -30 -12 -57 -8 -60 3 -3 8
2 11 10 3 10 10 3 17 -20 7 -19 17 -34 22 -33 5 1 15 -15 23 -35 12 -33 14
-35 21 -17 6 13 7 8 3 -15 -15 -82 -48 -111 -147 -125 -46 -7 -49 -6 -82 30
-19 20 -35 42 -35 48 0 7 4 6 10 -3 7 -11 10 -7 10 18 0 17 -4 32 -10 32 -5 0
-10 7 -10 15 0 9 10 16 28 16 23 2 24 2 4 6 -12 2 -20 9 -17 14 3 5 -6 26 -20
46 -30 45 -35 75 -7 51 9 -8 24 -17 33 -21 26 -9 96 29 112 60 19 38 29 107
20 141 -6 21 -9 11 -13 -46 -7 -87 -29 -123 -84 -136 -39 -10 -57 1 -55 34 1
11 3 10 6 -2 2 -10 9 -18 15 -18 5 0 8 7 4 15 -3 8 -1 15 4 15 6 0 9 6 7 13
-1 6 4 11 11 9 9 -1 11 2 6 10 -6 9 -3 9 9 -1 9 -7 14 -18 10 -25 -3 -6 -2 -8
2 -3 5 4 9 16 10 27 1 15 -5 20 -22 20 -13 0 -23 -5 -23 -12 0 -6 -3 -8 -7 -5
-3 4 -12 -1 -19 -10 -10 -15 -13 -9 -19 39 -8 65 -1 99 21 91 7 -3 14 0 14 6
0 13 -43 25 -73 19 -21 -4 -22 -1 -23 83 -1 48 -4 105 -8 127 -6 39 -5 41 40
67 56 33 47 50 -16 31 -25 -7 -52 -11 -60 -8 -12 4 -13 2 -2 -9 21 -22 14 -29
-33 -29 -24 0 -65 -7 -91 -16 -39 -13 -48 -13 -55 -2 -5 8 -3 17 6 24 12 9 11
15 -7 40 -11 16 -18 21 -14 12 3 -10 1 -18 -4 -18 -6 0 -10 5 -10 12 0 6 -2 9
-5 6 -11 -10 7 -37 21 -31 8 3 14 0 14 -7 0 -6 -5 -8 -11 -4 -8 5 -10 -2 -6
-21 3 -16 0 -34 -7 -41 -10 -9 -12 -3 -12 29 1 24 -3 41 -9 40 -20 -3 -11 36
11 46 17 7 26 6 40 -7 23 -21 64 -17 64 6 0 15 2 15 10 2 7 -12 3 -18 -21 -28
-44 -18 -31 -24 16 -7 22 8 50 14 63 15 15 0 22 6 22 19 0 11 9 22 19 26 11 3
36 19 56 35 40 31 78 39 92 18 4 -7 10 111 13 262 l5 275 -40 48 c-34 41 -37
51 -27 67 11 18 9 19 -16 14 -31 -5 -58 8 -48 25 4 6 18 11 32 11 31 0 87 28
79 39 -2 5 3 15 13 22 15 13 16 12 3 -3 -17 -23 -3 -23 21 -1 24 22 24 4 -1
-70 -11 -32 -16 -57 -10 -57 5 0 9 5 9 11 0 6 7 25 15 42 8 18 19 50 25 72
l10 40 -5 -40 c-4 -35 -2 -38 9 -22 14 18 32 24 21 7 -3 -5 3 -10 14 -10 12 0
27 11 35 28 8 15 15 21 16 14 0 -7 -7 -24 -16 -38 -9 -13 -14 -28 -10 -32 4
-4 12 1 17 11 6 9 18 17 27 17 13 0 9 -7 -13 -26 -17 -15 -22 -23 -12 -20 9 3
17 1 17 -4 0 -6 -4 -10 -9 -10 -5 0 -13 -10 -17 -22 -3 -13 -14 -32 -23 -42
-13 -16 -13 -18 -1 -11 38 21 62 54 89 125 31 80 105 359 97 367 -2 2 -9 -13
-16 -34 -7 -21 -16 -42 -21 -48 -5 -5 0 17 11 49 28 82 13 62 -31 -42 -25 -58
-43 -88 -56 -91 -17 -3 -17 -3 0 17 12 13 16 28 12 41 -3 12 -3 21 2 21 21 0
118 182 132 248 17 81 12 84 -14 7 -22 -65 -85 -189 -92 -181 -2 2 12 37 30
78 19 41 37 92 41 113 l7 40 -20 -42 c-11 -23 -27 -59 -37 -80 -35 -75 -147
-224 -159 -211 -4 3 3 16 14 27 12 12 21 29 21 39 -1 15 -2 15 -15 -2 -8 -11
-15 -23 -15 -26 0 -3 -9 -6 -20 -7 -11 -1 -18 2 -15 8 4 5 11 9 16 9 11 0 42
32 59 62 8 13 6 15 -13 10 -22 -5 -22 -5 -3 16 10 12 23 19 27 16 5 -3 9 -3 9
0 0 2 3 13 7 23 7 17 5 17 -17 2 -86 -54 -105 -63 -90 -44 14 19 14 19 -3 6
-10 -8 -16 -20 -13 -28 3 -8 2 -12 -3 -9 -12 8 -82 -111 -75 -128 3 -8 1 -17
-5 -21 -7 -4 -8 1 -4 12 3 11 2 14 -3 8 -65 -72 -68 -76 -50 -69 15 6 14 0 -9
-34 -15 -23 -30 -42 -32 -42 -3 0 2 11 11 25 18 28 14 47 -8 39 -8 -3 -12 -13
-9 -24 3 -10 0 -21 -6 -24 -10 -6 -15 6 -12 27 0 4 -4 7 -9 7 -6 0 -10 -4 -10
-9 0 -5 -10 -7 -22 -4 -19 4 -21 3 -8 -7 13 -10 13 -11 -2 -6 -9 3 -69 -6
-132 -20 -156 -33 -166 -32 -221 16 -26 22 -51 37 -57 34 -6 -4 -8 -3 -5 3 3
5 -18 34 -46 64 -29 31 -46 48 -39 38 8 -10 11 -23 7 -29 -3 -6 -1 -9 7 -8 8
2 12 -5 11 -17 -1 -11 0 -14 3 -7 8 17 24 5 17 -13 -4 -11 -1 -13 13 -8 11 4
15 3 11 -4 -9 -14 3 -74 13 -68 5 3 3 -11 -3 -30 -9 -30 -37 -50 -37 -26 0 4
-28 25 -62 46 -81 50 -138 102 -138 126 0 11 5 19 10 19 16 0 11 21 -9 38 -11
10 -26 37 -35 62 -15 44 -15 42 -13 -100 1 -89 -2 -147 -8 -150 -13 -5 -106
131 -100 147 2 6 0 13 -5 15 -5 2 -12 19 -15 38 -6 33 -6 34 9 16 21 -26 20
-12 -4 52 -11 29 -20 63 -20 77 0 52 -18 22 -25 -42 l-7 -66 -19 54 c-10 30
-19 70 -19 89 -1 32 -2 33 -11 12 -5 -13 -7 -36 -4 -50 5 -27 5 -27 -7 -4 -9
18 -9 33 0 69 7 25 10 48 7 51 -3 3 -5 -3 -5 -14 0 -16 -2 -17 -10 -4 -8 12
-10 11 -10 -7 0 -13 -4 -23 -9 -23 -13 0 -22 46 -15 77 4 16 3 25 -1 21 -4 -4
-15 -41 -24 -83 -9 -42 -21 -77 -26 -78 -16 -3 -33 81 -35 168 l-1 80 -21 -52
c-23 -58 -41 -71 -31 -23 7 35 -13 42 -21 8 -2 -13 -4 -6 -2 15 1 23 -2 37
-10 37 -14 0 -26 35 -25 70 2 36 -30 -53 -38 -110 l-7 -45 -12 40 c-7 22 -12
81 -13 130 -1 50 -3 82 -6 73 -7 -29 -17 -21 -42 37 -14 34 -26 84 -29 127
l-5 72 -34 -68 c-19 -38 -43 -101 -54 -140 l-19 -71 3 52 c2 29 1 51 -2 51 -6
-2 -94 9 -146 18 -23 4 -26 3 -15 -5 11 -8 3 -11 -34 -11 -48 0 -48 0 -42 -27
21 -87 91 -195 251 -388 112 -134 298 -365 336 -416 49 -65 116 -178 124 -209
5 -20 -4 -15 -45 29 -28 29 -74 85 -102 122 -29 38 -55 69 -59 69 -3 0 -13 -7
-20 -17 -8 -9 -35 -33 -60 -53 l-46 -36 38 -94 c21 -52 35 -98 32 -103 -9 -15
-20 6 -53 106 -17 54 -35 97 -39 95 -4 -2 -41 -20 -83 -42 -74 -38 -75 -39
-65 -67 6 -15 14 -26 17 -24 10 6 82 -164 75 -175 -9 -14 12 -21 37 -11 12 5
44 27 70 50 36 32 54 41 83 41 21 0 34 -4 30 -10 -4 -6 1 -7 11 -3 13 5 15 3
9 -7 -6 -9 -4 -11 5 -5 24 15 80 11 80 -5 1 -8 8 -2 16 13 l15 28 25 -28 c13
-15 24 -23 25 -18 0 6 4 0 10 -13 5 -13 13 -21 18 -18 8 6 35 -143 27 -151 -2
-2 -36 -9 -74 -14 -107 -15 -204 -42 -216 -61 -9 -16 14 -85 81 -237 4 -9 2
-12 -5 -7 -7 4 -12 1 -12 -8 0 -8 5 -18 10 -21 6 -3 10 -1 10 6 0 7 24 -28 54
-77 42 -71 56 -104 66 -162 12 -72 12 -73 -15 -113 -15 -21 -31 -39 -35 -39
-4 0 -15 9 -25 20 -14 16 -20 17 -27 8 -6 -10 -8 -10 -8 -1 0 12 -46 -13 -102
-57 -16 -12 -28 -20 -28 -17 0 2 16 34 35 71 35 68 39 110 11 128 -6 4 -7 8
-3 8 5 0 5 5 1 11 -8 13 -45 -63 -84 -171 -12 -36 -28 -69 -34 -75 -6 -5 -11
-41 -11 -78 0 -72 -15 -98 -52 -93 -9 2 -31 -13 -48 -33 -44 -49 -71 -102 -44
-85 6 3 3 -5 -6 -20 -14 -20 -14 -26 -4 -26 10 -1 8 -4 -3 -11 -10 -5 -18 -15
-18 -20 0 -6 -21 -39 -46 -74 -25 -36 -43 -69 -39 -75 3 -5 2 -10 -4 -10 -6 0
-24 -29 -42 -65 -17 -36 -32 -65 -33 -65 -1 0 -3 42 -4 93 -2 64 -7 96 -17
106 -12 13 -15 12 -23 -8 -4 -12 -12 -21 -17 -19 -17 6 -25 -83 -15 -156 8
-52 18 -82 40 -113 17 -22 31 -52 32 -65 2 -12 8 -26 13 -30 6 -5 5 -8 -4 -8
-15 0 -35 24 -104 124 -36 52 -45 71 -35 77 10 7 9 9 -4 9 -9 0 -27 14 -39 32
-19 26 -20 31 -5 25 11 -4 15 -3 11 4 -4 6 -14 8 -23 4 -9 -3 -29 7 -51 27
-20 18 -27 22 -16 9 l20 -23 -35 7 c-19 4 -39 12 -45 18 -7 7 -4 8 8 4 35 -13
15 9 -45 50 -89 59 -135 83 -161 83 -70 0 -230 119 -220 163 4 17 2 18 -5 8
-5 -7 -15 -10 -21 -7 -6 4 -11 2 -11 -4 0 -14 -49 11 -74 39 -18 20 -18 22 -1
41 17 19 17 19 -16 10 -18 -5 -37 -14 -42 -19 -13 -13 0 -77 20 -97 16 -15 15
-19 -6 -56 l-22 -39 41 -50 c50 -58 49 -81 -6 -128 -34 -31 -36 -34 -29 -77 5
-37 3 -48 -12 -61 -16 -14 -15 -14 7 0 14 8 46 16 71 18 41 4 45 2 42 -16 -2
-11 -1 -14 3 -7 3 6 10 12 15 12 6 0 6 -8 -1 -19 -16 -30 -12 -36 10 -16 20
18 20 17 20 -7 0 -45 25 -40 28 5 4 62 18 74 38 34 76 -156 205 -389 238 -429
81 -101 95 -121 89 -131 -3 -6 -1 -7 4 -4 6 4 25 -10 42 -31 l30 -37 -5 30
c-3 24 -2 27 6 13 6 -10 16 -18 23 -18 7 0 6 4 -3 10 -8 5 -11 12 -7 16 4 4
29 -16 56 -45 39 -42 47 -56 38 -66 -9 -9 -17 -10 -32 -3 -14 8 -20 8 -23 -1
-2 -7 -11 3 -21 21 -9 18 -18 31 -21 29 -3 -3 -27 8 -53 22 -52 29 -77 34 -78
15 0 -10 -2 -10 -6 0 -10 24 -22 12 -13 -13 9 -24 8 -25 -18 -19 -15 4 -44 7
-64 7 -32 -1 -46 7 -95 53 -32 29 -66 56 -75 59 -24 8 -23 25 1 25 11 0 23 5
27 12 5 8 -4 9 -33 5 -31 -5 -44 -3 -54 9 -24 29 -111 83 -125 77 -8 -3 -14
-12 -14 -21 0 -17 58 -82 73 -82 6 0 31 -19 56 -43 26 -23 60 -53 76 -66 18
-15 24 -26 17 -29 -7 -2 -10 -8 -6 -13 3 -5 -2 -9 -10 -9 -8 0 -20 -9 -26 -20
-15 -28 -31 -25 -70 15 -40 41 -54 44 -48 10 6 -30 7 -30 -33 -6 -42 26 -60
18 -52 -22 6 -28 5 -30 -9 -19 -13 10 -18 10 -24 1 -4 -8 -3 -9 4 -5 7 4 12 2
12 -3 0 -6 -9 -11 -20 -11 -11 0 -20 -4 -20 -9 0 -5 -10 -11 -22 -14 -13 -2
-30 -8 -39 -11 -19 -8 -89 47 -89 71 0 22 41 106 58 119 9 6 13 18 9 28 -7 19
8 22 17 4 4 -7 4 -2 0 12 -3 14 -8 38 -11 53 -4 22 -10 27 -27 22 -11 -2 -15
-2 -9 1 10 4 10 9 -2 20 -7 8 -18 14 -22 13 -19 -3 -23 2 -14 19 6 11 6 24 0
33 -7 11 -9 10 -10 -6 0 -12 -13 6 -30 42 -35 73 -31 91 30 146 23 21 39 42
35 48 -8 14 -6 426 3 504 6 53 8 56 14 30 6 -20 7 -8 5 38 -1 38 -7 72 -14 75
-13 9 -11 11 56 121 23 38 53 78 67 89 31 25 33 36 40 251 3 96 8 178 10 182
9 14 -17 164 -31 180 -11 12 -14 50 -14 165 0 91 4 144 9 135 12 -18 25 104
19 164 -3 24 -2 45 2 47 5 2 4 28 -1 58 -5 30 -6 71 -3 90 7 34 7 34 14 10 5
-16 8 7 9 65 2 142 10 338 15 360 2 11 7 94 11 185 4 91 8 182 10 203 1 20 -2
37 -7 37 -5 0 -6 6 -1 13 4 6 9 64 10 127 2 63 4 128 5 144 4 39 -18 50 -149
72 -57 10 -103 22 -103 28 0 6 14 58 30 116 18 62 33 138 35 185 l5 80 -15
-85 c-20 -118 -24 -132 -35 -125 -14 9 2 258 20 320 18 58 22 112 25 354 2
146 8 247 14 250 5 4 12 24 14 46 5 43 -1 -150 -8 -300 -13 -236 -15 -274 -24
-334 -10 -64 -7 -86 9 -76 14 9 20 -38 21 -190 1 -205 15 -137 23 118 4 111
10 234 13 272 10 115 10 118 12 165 1 33 4 41 11 30 9 -13 10 -13 10 0 1 9 6
6 16 -10 l15 -25 -6 28 c-4 21 -2 27 12 27 10 0 25 -4 33 -10 9 -6 19 -5 28 2
11 9 12 7 7 -14 -8 -32 10 -46 19 -15 7 23 25 279 26 354 0 35 3 42 23 46 12
2 27 3 32 2 6 -1 10 -53 10 -131z m-1305 107 c0 -11 -4 -22 -9 -25 -5 -3 -8 5
-7 19 1 29 16 34 16 6z m-886 -22 c-1 -54 -15 -190 -20 -204 -4 -8 -10 -13
-14 -10 -5 3 -15 -1 -23 -9 -13 -13 -14 -12 -14 11 0 18 2 21 8 12 6 -10 9
-10 9 -2 0 20 -18 24 -42 11 -37 -22 -60 -46 -54 -57 4 -5 2 -12 -4 -16 -6 -4
-7 -11 -4 -17 4 -7 2 -8 -4 -4 -7 4 -12 2 -12 -4 0 -7 -7 -10 -15 -6 -18 7
-48 -22 -38 -37 5 -8 9 -6 11 6 4 17 14 22 25 11 10 -10 -12 -44 -28 -44 -13
0 -20 18 -16 43 0 4 -4 7 -9 7 -19 0 -10 37 15 60 29 27 31 37 10 37 -8 0 -12
-4 -9 -9 3 -4 -2 -5 -10 -2 -23 9 -19 22 7 26 12 2 21 9 19 16 -1 8 2 11 8 7
5 -3 10 -1 10 5 0 6 7 18 15 27 21 20 11 30 -11 12 -16 -13 -16 -12 -4 8 11
16 18 19 27 11 9 -7 21 -3 43 18 16 16 30 35 30 43 0 13 -2 13 -12 0 -7 -8
-24 -23 -38 -34 -24 -20 -24 -20 -10 0 28 36 83 80 104 82 12 0 27 1 34 2 6 1
12 5 12 11 0 5 -7 6 -17 3 -11 -4 -14 -3 -9 6 12 19 31 7 30 -20z m913 -4 c0
-8 -4 -12 -9 -9 -5 3 -6 10 -3 15 9 13 12 11 12 -6z m-1122 -5 c-3 -5 -12 -10
-18 -10 -7 0 -6 4 3 10 19 12 23 12 15 0z m2102 -42 c-3 -7 -5 -2 -5 12 0 14
2 19 5 13 2 -7 2 -19 0 -25z m-2187 1 c0 -13 -25 -39 -39 -39 -6 0 -8 -7 -5
-15 4 -8 2 -21 -4 -28 -5 -6 -13 -22 -16 -34 -6 -18 -3 -21 11 -19 14 3 18 -3
18 -27 0 -17 -6 -32 -14 -35 -10 -3 -12 3 -6 27 5 26 4 30 -9 25 -20 -8 -23
-24 -10 -58 6 -16 4 -18 -9 -13 -11 4 -17 1 -17 -9 0 -8 5 -12 10 -9 6 3 10 1
10 -4 0 -13 -11 -14 -25 -3 -20 14 3 122 26 122 5 0 9 9 9 20 0 11 -5 20 -11
20 -6 0 -8 -7 -5 -16 3 -8 2 -12 -4 -9 -11 7 -32 -30 -37 -65 -13 -93 -40
-230 -45 -225 -4 4 -5 16 -3 28 2 12 6 65 10 117 l7 95 49 55 c26 30 49 58 49
63 0 4 8 7 17 7 9 0 13 3 10 7 -8 7 11 33 24 33 5 0 9 -5 9 -11z m1177 -31
c-3 -8 -6 -5 -6 6 -1 11 2 17 5 13 3 -3 4 -12 1 -19z m-1400 -20 c-3 -8 -6 -5
-6 6 -1 11 2 17 5 13 3 -3 4 -12 1 -19z m100 0 c-3 -8 -6 -5 -6 6 -1 11 2 17
5 13 3 -3 4 -12 1 -19z m3 -22 c0 -3 -4 -8 -10 -11 -5 -3 -10 -1 -10 4 0 6 5
11 10 11 6 0 10 -2 10 -4z m145 -98 c5 -4 0 -6 -12 -6 -13 1 -19 7 -16 15 3 8
8 10 12 6 3 -4 10 -11 16 -15z m-2 -38 c3 -11 2 -22 -3 -25 -4 -2 -13 -25 -20
-50 -7 -25 -17 -45 -22 -45 -5 0 -6 -4 -3 -10 8 -14 -13 -50 -30 -50 -7 0 -17
5 -21 12 -5 8 0 9 14 6 12 -4 22 -2 22 3 0 5 -6 9 -12 10 -10 0 -10 2 0 6 6 2
12 13 12 24 0 10 5 19 10 19 6 0 10 10 10 23 0 12 4 29 10 37 6 9 5 17 -3 22
-9 6 -9 8 1 8 6 0 12 7 12 15 0 22 17 18 23 -5z m170 6 c3 3 3 -5 -1 -18 -5
-18 -7 -19 -10 -5 -2 9 -8 17 -13 17 -5 0 -9 5 -9 11 0 8 4 9 13 0 8 -6 16 -8
20 -5z m-243 -47 c0 -6 -4 -7 -10 -4 -5 3 -10 11 -10 16 0 6 5 7 10 4 6 -3 10
-11 10 -16z m-47 -19 c3 -11 1 -18 -4 -14 -18 11 -8 -32 10 -46 25 -17 18 -30
-16 -30 -23 0 -25 3 -19 31 3 17 6 42 6 55 0 29 16 32 23 4z m264 4 c0 -7 -6
-10 -14 -7 -7 3 -13 8 -13 12 0 4 6 8 13 8 8 0 14 -6 14 -13z m1030 10 c-3 -3
-12 -4 -19 -1 -8 3 -5 6 6 6 11 1 17 -2 13 -5z m-1172 -26 c-12 -31 -22 -107
-14 -102 5 3 9 1 9 -4 0 -11 -26 -23 -33 -16 -9 9 26 134 37 134 3 0 3 -6 1
-12z m-80 -27 c-6 -5 -25 10 -25 20 0 5 6 4 14 -3 8 -7 12 -15 11 -17z m5172
-59 c-33 -34 -49 -59 -54 -85 -3 -20 -10 -37 -15 -37 -25 0 8 69 55 118 28 28
54 52 56 52 3 0 -16 -22 -42 -48z m10 -44 c-3 -8 -6 -5 -6 6 -1 11 2 17 5 13
3 -3 4 -12 1 -19z m-5292 -8 c-3 -5 -11 -10 -16 -10 -6 0 -7 5 -4 10 3 6 11
10 16 10 6 0 7 -4 4 -10z m84 -17 c19 -1 38 -6 44 -12 6 -6 -2 -9 -24 -7 -46
4 -79 15 -79 27 0 6 6 7 13 2 6 -4 27 -9 46 -10z m5601 -14 c17 -13 18 -17 5
-10 -33 17 -51 31 -40 31 6 0 21 -10 35 -21z m-5817 -16 c-7 -2 -19 -2 -25 0
-7 3 -2 5 12 5 14 0 19 -2 13 -5z m64 -9 c-3 -3 -12 -4 -19 -1 -8 3 -5 6 6 6
11 1 17 -2 13 -5z m5616 -31 c-13 -2 -35 -2 -50 0 -16 2 -5 4 22 4 28 0 40 -2
28 -4z m80 -10 c-7 -2 -21 -2 -30 0 -10 3 -4 5 12 5 17 0 24 -2 18 -5z m77
-23 c21 -11 42 -25 46 -32 6 -10 5 -10 -7 -1 -8 7 -35 21 -60 32 -24 11 -38
21 -31 21 7 0 30 -9 52 -20z m-3429 -175 c5 4 9 1 9 -5 0 -17 -25 -6 -26 11
-1 9 1 10 3 1 3 -7 9 -10 14 -7z m5 -72 c-10 -10 -19 5 -10 18 6 11 8 11 12 0
2 -7 1 -15 -2 -18z m-9 -45 c-3 -8 -6 -5 -6 6 -1 11 2 17 5 13 3 -3 4 -12 1
-19z m-1404 -185 c-7 -2 -21 -2 -30 0 -10 3 -4 5 12 5 17 0 24 -2 18 -5z
m-1239 -62 c3 -4 -6 -6 -19 -3 -14 2 -25 6 -25 8 0 8 39 4 44 -5z m91 -21 c-5
-8 -53 -1 -59 9 -3 4 11 5 30 3 18 -2 32 -8 29 -12z m202 -66 c-3 -3 -12 -4
-19 -1 -8 3 -5 6 6 6 11 1 17 -2 13 -5z m40 -10 c-3 -3 -12 -4 -19 -1 -8 3 -5
6 6 6 11 1 17 -2 13 -5z m198 -30 c25 -5 33 -9 21 -12 -23 -5 -206 28 -206 38
0 3 33 0 73 -7 39 -7 90 -16 112 -19z m450 6 c3 -6 -1 -7 -9 -4 -18 7 -21 14
-7 14 6 0 13 -4 16 -10z m-24 -17 c13 -15 12 -15 -11 -3 -34 17 -36 20 -18 20
9 0 22 -7 29 -17z m379 -13 c0 -5 -5 -10 -11 -10 -5 0 -7 5 -4 10 3 6 8 10 11
10 2 0 4 -4 4 -10z m-1040 -19 c10 -7 15 -35 17 -107 1 -53 0 -94 -4 -90 -10
10 -70 196 -64 201 7 8 35 5 51 -4z m1253 -15 c73 -17 101 -32 160 -83 20 -18
44 -33 52 -33 34 0 11 -31 -52 -71 -86 -55 -103 -65 -130 -80 -13 -7 -23 -19
-24 -28 0 -11 -2 -12 -6 -3 -3 8 -19 -2 -46 -30 -23 -24 -45 -42 -49 -40 -5 1
-8 -6 -8 -16 0 -10 -7 -41 -15 -68 -13 -44 -18 -50 -42 -49 -31 0 -53 16 -53
39 0 8 -4 17 -9 20 -4 3 -6 -6 -3 -19 2 -15 0 -25 -7 -25 -7 0 -10 3 -8 8 5 7
-22 37 -33 37 -3 0 -3 7 -2 14 3 12 1 13 -12 2 -12 -10 -13 -18 -5 -35 10 -21
10 -21 -5 -1 -29 38 -37 45 -50 45 -11 0 -14 -31 -15 -142 -1 -78 -4 -144 -6
-146 -3 -3 -13 1 -22 9 -16 13 -17 12 -5 -2 10 -14 10 -20 -3 -33 -9 -9 -12
-16 -6 -16 12 0 15 -33 4 -44 -4 -4 -9 -30 -10 -58 -2 -29 -6 -54 -9 -57 -11
-11 7 513 18 526 6 7 7 13 2 13 -4 0 -3 5 4 12 17 17 15 43 -4 58 -19 17 -41
56 -25 46 6 -4 11 -2 11 3 0 6 -7 11 -16 11 -11 0 -14 5 -10 16 3 9 6 36 6 60
0 37 3 44 18 42 9 -2 22 -18 29 -38 l11 -35 1 38 c1 39 6 41 68 22 7 -2 15 0
18 4 3 5 26 7 52 4 27 -3 64 -5 85 -6 20 -1 35 -4 33 -7 -2 -3 0 -12 4 -19 7
-10 14 -10 36 5 27 18 27 18 5 26 -12 4 -18 12 -15 18 8 12 8 12 -34 0 -26 -7
-32 -7 -23 2 8 8 5 15 -16 26 -15 8 -32 15 -39 16 -7 1 -16 6 -20 10 -4 5 7 5
25 1 42 -9 41 0 -4 21 l-37 18 24 19 c27 22 96 20 212 -7z m1090 -71 c4 -15 5
-13 6 8 0 15 6 27 12 27 5 0 7 -4 4 -10 -3 -5 -1 -18 4 -27 9 -16 10 -14 11
10 0 23 4 27 28 27 42 0 72 -26 72 -63 0 -39 18 -107 28 -107 4 0 9 11 10 25
2 29 29 75 44 75 12 0 4 -174 -17 -355 -7 -66 -17 -154 -20 -195 -7 -71 -24
-118 -38 -103 -4 3 -7 18 -7 31 0 34 -9 23 -12 -14 -3 -31 -27 -67 -29 -42 -1
7 -4 2 -8 -11 -5 -19 -17 -28 -53 -37 -46 -11 -117 -9 -130 4 -10 10 11 566
28 729 4 43 9 52 27 55 26 5 33 0 40 -27z m-1607 -60 c-11 -8 -24 -15 -30 -15
-5 0 -1 7 10 15 10 8 24 14 29 14 6 0 1 -6 -9 -14z m1774 -15 c0 -5 -2 -10 -4
-10 -3 0 -8 5 -11 10 -3 6 -1 10 4 10 6 0 11 -4 11 -10z m-1825 -21 c-6 -9
-45 -8 -45 2 0 4 11 7 25 7 13 0 22 -4 20 -9z m2882 -85 c-3 -3 -12 -4 -19 -1
-8 3 -5 6 6 6 11 1 17 -2 13 -5z m103 -14 c0 -5 -2 -10 -4 -10 -3 0 -8 5 -11
10 -3 6 -1 10 4 10 6 0 11 -4 11 -10z m90 -6 c0 -2 -9 -4 -20 -4 -11 0 -20 4
-20 9 0 5 9 7 20 4 11 -3 20 -7 20 -9z m-3798 -46 c-8 -8 -9 -4 -5 13 4 13 8
18 11 10 2 -7 -1 -18 -6 -23z m3715 -75 c-3 -10 -5 -4 -5 12 0 17 2 24 5 18 2
-7 2 -21 0 -30z m3626 -17 c6 -16 -2 -28 -14 -20 -12 7 -11 34 0 34 5 0 11 -6
14 -14z m-6381 -28 c3 -7 1 -24 -3 -38 -9 -25 -9 -25 -5 3 2 15 -1 27 -5 27
-5 0 -9 5 -9 10 0 14 17 12 22 -2z m121 -83 c-3 -9 -8 -14 -10 -11 -3 3 -2 9
2 15 9 16 15 13 8 -4z m-416 -87 c-3 -8 -6 -5 -6 6 -1 11 2 17 5 13 3 -3 4
-12 1 -19z m-450 -10 c-3 -8 -6 -5 -6 6 -1 11 2 17 5 13 3 -3 4 -12 1 -19z
m5731 -33 c0 -16 -2 -15 -8 5 -11 34 -11 60 0 35 5 -11 8 -29 8 -40z m-5741
-17 c-3 -8 -6 -5 -6 6 -1 11 2 17 5 13 3 -3 4 -12 1 -19z m718 -68 c3 -5 -1
-10 -10 -10 -9 0 -13 5 -10 10 3 6 8 10 10 10 2 0 7 -4 10 -10z m5018 -20 c-3
-11 -7 -20 -9 -20 -2 0 -4 9 -4 20 0 11 4 20 9 20 5 0 7 -9 4 -20z m-5306 -22
c-3 -8 -6 -5 -6 6 -1 11 2 17 5 13 3 -3 4 -12 1 -19z m4837 7 c-10 -8 -25 -15
-32 -15 -7 0 -11 -4 -8 -9 3 -5 -1 -12 -10 -15 -31 -12 -37 -6 -13 14 13 11
29 24 34 29 6 6 19 10 29 11 20 0 20 0 0 -15z m-4854 -5 c0 -5 -5 -10 -11 -10
-5 0 -7 5 -4 10 3 6 8 10 11 10 2 0 4 -4 4 -10z m17 -46 c-3 -3 -12 -4 -19 -1
-8 3 -5 6 6 6 11 1 17 -2 13 -5z m4753 -8 c0 -3 -4 -8 -10 -11 -5 -3 -10 -1
-10 4 0 6 5 11 10 11 6 0 10 -2 10 -4z m-1094 -117 c15 -22 45 -54 66 -70 21
-17 38 -36 38 -42 0 -6 -28 15 -61 48 -61 59 -99 121 -98 160 0 11 6 4 13 -18
8 -21 26 -56 42 -78z m1207 76 c-3 -9 -8 -14 -10 -11 -3 3 -2 9 2 15 9 16 15
13 8 -4z m67 5 c0 -5 -8 -10 -17 -10 -15 0 -16 2 -3 10 19 12 20 12 20 0z
m1777 -42 c-3 -8 -6 -5 -6 6 -1 11 2 17 5 13 3 -3 4 -12 1 -19z m-6937 -43 c0
-12 -19 -12 -23 0 -4 9 -1 12 9 8 7 -3 14 -7 14 -8z m5160 -6 c0 -5 -5 -7 -12
-3 -7 5 -9 2 -5 -9 4 -11 2 -14 -9 -10 -11 4 -12 9 -3 19 14 17 29 18 29 3z
m-270 -29 c-6 -11 -13 -20 -16 -20 -2 0 0 9 6 20 6 11 13 20 16 20 2 0 0 -9
-6 -20z m544 -5 c4 -10 -1 -15 -14 -15 -13 0 -18 5 -14 15 4 8 10 15 14 15 4
0 10 -7 14 -15z m-20 -44 c3 -5 -1 -14 -9 -21 -18 -15 -20 -40 -4 -40 8 0 7
-5 -1 -15 -22 -27 -33 -2 -19 44 12 40 22 50 33 32z m-789 -31 c17 -18 17 -20
2 -14 -9 3 -17 10 -17 14 0 5 -8 11 -17 13 -15 4 -15 5 -2 6 9 0 24 -8 34 -19z
m460 -9 c3 -5 1 -12 -4 -15 -5 -3 -11 1 -15 9 -6 16 9 21 19 6z m-5125 -22 c0
-6 -4 -7 -10 -4 -5 3 -10 11 -10 16 0 6 5 7 10 4 6 -3 10 -11 10 -16z m4712
-7 c-6 -2 -8 -10 -5 -18 3 -8 -1 -14 -8 -14 -11 0 -11 -3 1 -10 13 -8 12 -10
-4 -10 -14 0 -17 5 -11 23 4 12 7 30 6 40 0 16 3 16 16 6 9 -8 11 -15 5 -17z
m-42 -14 c0 -26 -13 -16 -17 13 -2 12 1 18 7 14 5 -3 10 -16 10 -27z m-1186
-181 c21 -53 34 -102 30 -108 -5 -9 -74 179 -74 205 0 18 9 -1 44 -97z m-3566
38 c-3 -3 -9 2 -12 12 -6 14 -5 15 5 6 7 -7 10 -15 7 -18z m3521 -76 c34 -80
40 -103 30 -110 -8 -4 -17 -5 -21 -1 -14 15 -87 195 -82 203 15 24 34 0 73
-92z m-3509 -9 c0 -5 -2 -10 -4 -10 -3 0 -8 5 -11 10 -3 6 -1 10 4 10 6 0 11
-4 11 -10z m1424 -258 c3 -5 -1 -9 -9 -9 -8 0 -15 4 -15 9 0 4 4 8 9 8 6 0 12
-4 15 -8z m-118 -34 c5 -8 -8 -9 -41 -5 -27 3 -59 1 -72 -4 -13 -5 -23 -5 -23
0 0 13 18 18 77 19 29 0 56 -4 59 -10z m2484 -22 c0 -2 -9 -6 -20 -9 -11 -3
-18 -1 -14 4 5 9 34 13 34 5z m-2610 -14 c0 -5 -7 -9 -15 -9 -8 0 -15 4 -15 9
0 4 7 8 15 8 8 0 15 -4 15 -8z m2530 -6 c0 -3 -4 -8 -10 -11 -5 -3 -10 -1 -10
4 0 6 5 11 10 11 6 0 10 -2 10 -4z m-2625 -25 c-44 -21 -43 -27 2 -11 26 9 27
9 9 -5 -11 -8 -28 -15 -37 -15 -10 0 -21 -4 -24 -10 -3 -5 -16 -10 -28 -9 -20
1 -19 2 6 12 15 6 27 14 27 19 0 10 -23 6 -31 -5 -8 -11 -147 -30 -166 -23
-16 7 -8 26 10 26 7 0 6 -4 -3 -11 -12 -8 -10 -9 10 -7 14 2 24 9 23 16 -2 6
4 12 13 12 8 0 12 -4 9 -10 -3 -5 -1 -10 4 -10 10 0 15 14 12 33 -1 4 8 3 20
-3 11 -7 28 -8 37 -5 9 4 34 9 55 10 22 2 41 6 45 9 3 3 15 6 26 6 15 0 9 -6
-19 -19z m3129 -26 c5 -24 12 -35 24 -35 14 0 15 -2 2 -10 -8 -5 -11 -13 -6
-17 4 -4 14 1 22 11 14 20 14 20 15 0 0 -10 2 -30 5 -43 3 -18 1 -22 -11 -17
-8 3 -15 1 -15 -4 0 -6 7 -10 15 -10 8 0 15 -5 15 -11 0 -5 -3 -8 -7 -6 -8 4
-66 -3 -180 -21 -42 -7 -50 -6 -46 5 3 8 12 12 22 8 10 -4 8 1 -6 15 -27 25
-29 35 -5 26 9 -4 1 7 -18 23 -19 17 -30 30 -23 31 7 0 1 11 -12 25 -31 31
-31 41 0 47 24 5 46 -11 58 -42 3 -8 6 -1 6 17 1 34 9 37 102 41 34 2 37 0 43
-33z m30 20 c-4 -8 -1 -15 5 -15 6 0 11 -7 11 -15 0 -25 -27 -17 -32 10 -5 25
-1 35 13 35 5 0 6 -7 3 -15z m-3521 -31 c3 -3 3 -12 0 -19 -3 -10 -11 -11 -29
-4 -17 6 -23 6 -19 -1 3 -6 -3 -10 -14 -10 -12 0 -21 5 -21 11 0 5 5 7 10 4 6
-3 10 -2 10 4 0 5 10 12 23 14 12 2 25 5 28 6 3 0 8 -2 12 -5z m77 2 c0 -2 -9
-6 -20 -9 -11 -3 -20 -1 -20 4 0 5 9 9 20 9 11 0 20 -2 20 -4z m3030 -6 c0 -5
-5 -10 -11 -10 -5 0 -7 5 -4 10 3 6 8 10 11 10 2 0 4 -4 4 -10z m-3260 -32 c0
-6 -9 -8 -20 -5 -10 3 -27 -1 -37 -9 -17 -12 -16 -13 5 -7 22 5 23 4 12 -14
-10 -15 -24 -20 -64 -20 -28 -1 -67 -4 -86 -8 -33 -5 -32 -5 10 13 25 10 62
27 83 36 20 10 49 19 62 19 14 0 22 4 18 10 -3 6 -1 7 5 3 7 -4 12 -12 12 -18z
m253 15 c-7 -2 -21 -2 -30 0 -10 3 -4 5 12 5 17 0 24 -2 18 -5z m157 -3 c0 -5
-2 -10 -4 -10 -3 0 -8 5 -11 10 -3 6 -1 10 4 10 6 0 11 -4 11 -10z m-220 -10
c-20 -13 -33 -13 -25 0 3 6 14 10 23 10 15 0 15 -2 2 -10z m-487 -23 c-12 -7
-21 -16 -20 -22 1 -5 -9 -11 -23 -11 -14 -1 -38 -4 -55 -8 -16 -3 -23 -3 -15
0 8 4 38 17 65 30 52 25 87 33 48 11z m404 7 c-3 -3 -12 -4 -19 -1 -8 3 -5 6
6 6 11 1 17 -2 13 -5z m3966 -34 c3 -11 1 -18 -4 -14 -5 3 -9 12 -9 20 0 20 7
17 13 -6z m-2406 -32 c-3 -7 -5 -2 -5 12 0 14 2 19 5 13 2 -7 2 -19 0 -25z
m-1750 6 c-3 -3 -12 -4 -19 -1 -8 3 -5 6 6 6 11 1 17 -2 13 -5z m4183 -54 c0
-13 -1 -13 -10 0 -5 8 -10 22 -10 30 0 13 1 13 10 0 5 -8 10 -22 10 -30z m90
6 c0 -3 -4 -8 -10 -11 -5 -3 -10 -1 -10 4 0 6 5 11 10 11 6 0 10 -2 10 -4z
m-382 -47 c-7 -4 -6 -9 1 -13 6 -4 11 -12 11 -19 0 -21 -21 8 -26 37 -4 23 -3
25 10 14 8 -8 10 -15 4 -19z m-13 -39 c3 -5 1 -10 -4 -10 -6 0 -11 5 -11 10 0
6 2 10 4 10 3 0 8 -4 11 -10z m60 -10 c-3 -5 -12 -10 -18 -10 -7 0 -6 4 3 10
19 12 23 12 15 0z m102 -22 c-3 -7 -5 -2 -5 12 0 14 2 19 5 13 2 -7 2 -19 0
-25z m-200 6 c-3 -3 -12 -4 -19 -1 -8 3 -5 6 6 6 11 1 17 -2 13 -5z m83 -8 c0
-2 -7 -9 -15 -16 -13 -11 -14 -10 -9 4 5 14 24 23 24 12z m-70 -10 c0 -3 -4
-8 -10 -11 -5 -3 -10 -1 -10 4 0 6 5 11 10 11 6 0 10 -2 10 -4z m130 -2 c0 -8
-19 -13 -24 -6 -3 5 1 9 9 9 8 0 15 -2 15 -3z m-64 -33 c0 -16 -3 -17 -14 -9
-12 10 -7 19 13 28 1 0 1 -9 1 -19z m-21 -31 c-3 -5 -12 -10 -18 -10 -7 0 -6
4 3 10 19 12 23 12 15 0z m2120 -320 c3 -5 1 -10 -4 -10 -6 0 -11 5 -11 10 0
6 2 10 4 10 3 0 8 -4 11 -10z m-4566 -54 c-2 -2 -22 -6 -44 -9 -28 -5 -34 -4
-20 3 19 8 73 14 64 6z m1824 -131 c-3 -9 -8 -14 -10 -11 -3 3 -2 9 2 15 9 16
15 13 8 -4z m-1646 -27 c-3 -8 -6 -5 -6 6 -1 11 2 17 5 13 3 -3 4 -12 1 -19z
m1538 -13 c21 -3 42 -11 46 -17 4 -7 11 -3 18 11 32 59 35 -9 3 -77 -11 -25
-12 -36 -3 -45 6 -6 11 -15 11 -21 0 -5 -6 -1 -14 10 -14 18 -15 18 -20 -6 -3
-14 -14 -63 -25 -110 -11 -47 -22 -107 -26 -135 -3 -27 -13 -71 -21 -97 -9
-26 -14 -58 -12 -70 2 -13 15 24 30 82 34 134 36 105 3 -53 -14 -67 -33 -160
-41 -206 -9 -53 -21 -90 -32 -98 -9 -8 -12 -12 -7 -10 15 8 -32 -235 -67 -341
-32 -99 -122 -297 -140 -308 -7 -5 -9 -1 -5 9 3 9 18 51 33 94 15 43 38 90 50
105 25 31 58 122 51 141 -3 6 -6 3 -6 -8 -1 -24 -59 -150 -66 -143 -3 3 -1 36
5 75 12 86 60 205 76 189 8 -8 8 -21 -2 -50 -16 -45 -17 -49 -5 -42 8 5 28 68
36 116 4 24 4 24 -10 6 -20 -26 -19 -16 6 68 30 104 60 190 70 200 11 12 12
26 1 26 -4 0 -24 -33 -44 -72 -33 -67 -53 -121 -88 -233 -7 -22 -22 -60 -34
-85 -17 -35 -22 -65 -24 -133 -1 -82 -21 -174 -44 -203 -4 -7 -10 -29 -13 -50
-2 -28 -41 -101 -129 -248 -127 -211 -179 -285 -316 -451 -41 -50 -113 -144
-159 -208 -55 -78 -89 -117 -99 -115 -19 4 -133 152 -179 232 l-32 55 20 25
c15 19 17 30 9 50 -5 14 -16 26 -25 26 -8 0 -15 6 -15 13 0 8 -4 7 -10 -3 -7
-11 -10 -11 -10 -2 0 7 7 23 16 36 20 32 6 39 -54 32 -33 -5 -56 -2 -76 9 -32
17 -39 19 -32 6 3 -4 33 -19 66 -31 67 -25 70 -34 11 -33 -42 1 -150 58 -151
80 0 7 -7 10 -15 7 -8 -4 -15 -1 -15 5 0 13 35 14 59 2 15 -9 18 -6 18 20 0
44 46 87 113 105 30 8 89 24 130 36 41 12 91 22 110 24 19 1 36 7 38 12 1 4
31 -1 67 -12 35 -11 62 -23 59 -28 -15 -24 14 0 77 62 l71 70 -17 98 c-29 165
-29 172 -14 173 32 1 95 9 115 14 14 3 24 -1 28 -11 4 -10 12 -14 24 -9 14 5
15 4 5 -6 -24 -24 -15 -42 17 -37 17 3 30 1 30 -4 0 -5 4 -7 8 -4 4 2 9 23 10
46 2 23 7 62 11 88 5 25 7 51 4 57 -2 7 3 15 11 18 16 7 25 -12 32 -70 5 -42
12 -55 25 -48 5 4 9 0 10 -7 0 -7 4 -3 9 10 11 26 3 52 -16 52 -8 0 -11 6 -7
16 5 13 7 13 14 2 6 -9 9 -6 9 11 0 16 -4 21 -14 18 -11 -4 -13 -1 -9 10 5 14
9 13 25 -7 10 -13 16 -30 14 -37 -3 -8 -2 -12 2 -9 5 3 25 -24 46 -60 21 -36
40 -64 43 -61 2 3 -2 16 -10 29 -8 12 -32 63 -52 111 -29 66 -35 91 -26 100 8
8 11 5 11 -12 0 -14 4 -20 12 -15 8 5 9 2 5 -9 -3 -10 -2 -17 3 -17 6 0 10
-10 11 -22 0 -14 3 -17 6 -9 6 14 -25 130 -39 146 -4 5 -8 16 -8 24 0 9 9 -1
20 -22 11 -20 20 -44 20 -52 0 -8 5 -15 11 -15 6 0 8 8 5 18 -3 9 -7 40 -10
67 -3 28 -3 42 0 33 3 -9 11 -15 18 -12 16 6 21 -12 36 -131 21 -166 20 -162
32 -140 8 14 8 20 -2 23 -7 3 -8 7 -2 11 5 3 12 31 15 61 7 78 18 121 28 114
5 -3 9 0 9 5 0 10 -14 15 -32 12 -4 0 -5 6 -2 14 4 8 11 12 18 9 6 -3 3 1 -8
10 -13 11 -17 24 -14 50 4 35 -5 49 -15 24 -3 -8 -6 -6 -6 5 -1 9 4 17 9 17 6
0 10 5 10 11 0 5 -4 8 -8 5 -5 -3 -8 13 -6 34 2 29 -1 38 -9 33 -8 -5 -8 -2 0
9 7 8 10 18 7 21 -12 11 6 56 26 67 14 8 26 8 40 0 23 -12 23 -10 11 56 -5 27
-12 95 -16 151 l-6 102 41 27 c34 23 43 25 50 14 7 -12 10 -11 16 5 4 11 16
32 26 46 21 28 37 155 38 295 0 122 9 175 29 170 9 -3 34 -7 56 -11z m2855
-15 c0 -5 -5 -10 -11 -10 -5 0 -7 5 -4 10 3 6 8 10 11 10 2 0 4 -4 4 -10z
m350 -40 c0 -5 -7 -7 -15 -4 -8 4 -15 8 -15 10 0 2 7 4 15 4 8 0 15 -4 15 -10z
m30 0 c0 -5 -2 -10 -4 -10 -3 0 -8 5 -11 10 -3 6 -1 10 4 10 6 0 11 -4 11 -10z
m37 -6 c-3 -3 -12 -4 -19 -1 -8 3 -5 6 6 6 11 1 17 -2 13 -5z m-3432 -156
c-11 -154 -24 -208 -53 -219 -14 -5 -26 -8 -28 -7 -11 11 70 318 84 318 2 0 1
-42 -3 -92z m-2925 62 c0 -5 -5 -10 -11 -10 -5 0 -7 5 -4 10 3 6 8 10 11 10 2
0 4 -4 4 -10z m-80 -30 c-8 -5 -22 -9 -30 -9 -10 0 -8 3 5 9 27 12 43 12 25 0z
m-36 -38 c2 -4 -4 -9 -15 -9 -11 -1 -17 2 -14 8 7 11 22 12 29 1z m-51 -17
c-3 -9 -8 -14 -10 -11 -3 3 -2 9 2 15 9 16 15 13 8 -4z m3296 -48 c-6 -24 -14
-35 -22 -30 -8 5 -8 8 1 11 8 2 10 13 6 29 -5 18 -3 24 5 19 6 -4 11 -2 11 5
0 7 2 10 5 8 2 -3 0 -22 -6 -42z m-3382 -13 c-3 -3 -12 -4 -19 -1 -8 3 -5 6 6
6 11 1 17 -2 13 -5z m4660 -116 c-3 -7 -5 -2 -5 12 0 14 2 19 5 13 2 -7 2 -19
0 -25z m-2492 -8 c-3 -5 -11 -10 -16 -10 -6 0 -7 5 -4 10 3 6 11 10 16 10 6 0
7 -4 4 -10z m2679 -15 c3 -8 1 -15 -4 -15 -25 0 -7 -28 21 -34 24 -5 29 -9 21
-19 -7 -8 -7 -18 -2 -27 15 -23 12 -34 -5 -20 -8 7 -12 16 -9 21 3 5 -1 9 -8
9 -7 0 -19 12 -26 28 -25 51 -26 56 -12 47 10 -6 12 -4 7 8 -3 10 -2 17 2 17
5 0 11 -7 15 -15z m-1965 -28 c8 -10 7 -14 -4 -14 -8 0 -15 6 -15 14 0 7 2 13
4 13 2 0 9 -6 15 -13z m1121 -7 c-13 -9 -13 -10 0 -11 8 -1 23 -1 32 0 12 2
15 -4 11 -19 -3 -11 -1 -20 6 -20 17 0 31 -43 19 -57 -6 -8 -7 -13 -1 -13 19
0 7 -37 -21 -66 -16 -16 -25 -22 -21 -14 7 12 5 12 -11 -1 -10 -9 -25 -14 -31
-12 -7 3 -13 -2 -13 -10 0 -9 -10 -19 -22 -23 -13 -4 -25 -10 -28 -15 -3 -5
-27 -10 -53 -11 -34 -2 -46 -7 -42 -16 3 -8 0 -10 -6 -6 -16 9 -2 286 14 296
7 4 50 8 97 8 59 0 80 -3 70 -10z m-263 -57 c-3 -10 -5 -4 -5 12 0 17 2 24 5
18 2 -7 2 -21 0 -30z m-867 17 c0 -5 -5 -10 -11 -10 -5 0 -7 5 -4 10 3 6 8 10
11 10 2 0 4 -4 4 -10z m2058 -39 c-1 -23 -4 -26 -13 -17 -10 8 -10 13 -1 18 6
4 7 8 3 8 -5 0 -5 5 -2 10 10 17 14 11 13 -19z m1453 -12 c-6 -24 -9 -28 -10
-12 -1 24 9 56 16 50 2 -3 0 -20 -6 -38z m-211 -45 c0 -2 -9 0 -20 6 -11 6
-20 13 -20 16 0 2 9 0 20 -6 11 -6 20 -13 20 -16z m-2493 -16 c-3 -8 -6 -5 -6
6 -1 11 2 17 5 13 3 -3 4 -12 1 -19z m2709 10 c4 -7 4 -10 -1 -6 -4 4 -14 0
-21 -10 -12 -15 -12 -15 -7 6 6 24 18 29 29 10z m-46 -8 c0 -5 -5 -10 -11 -10
-5 0 -7 5 -4 10 3 6 8 10 11 10 2 0 4 -4 4 -10z m-2340 -85 c11 -13 10 -14 -4
-9 -9 3 -16 10 -16 15 0 13 6 11 20 -6z m863 -54 c-6 -9 20 -30 30 -24 5 3 8
2 6 -3 -2 -5 20 -34 50 -64 55 -56 58 -53 12 9 -14 19 -21 32 -14 28 6 -4 14
-3 17 2 4 5 -4 11 -16 13 -24 3 -38 28 -15 28 7 0 32 -19 54 -42 81 -86 118
-114 129 -96 4 7 4 10 0 6 -8 -7 -39 19 -65 54 -12 16 -11 17 18 2 18 -9 28
-20 25 -26 -4 -6 -2 -8 4 -4 10 6 130 -111 175 -172 l24 -32 -23 -88 c-29
-111 -89 -243 -96 -214 -3 12 -1 23 6 26 6 2 3 5 -6 5 -10 1 -18 -4 -18 -11 0
-6 -2 -9 -5 -6 -3 3 -1 16 3 29 8 19 4 30 -15 54 -22 25 -24 36 -20 76 5 41 2
52 -25 88 -16 23 -43 48 -58 56 -17 9 -31 26 -35 43 -3 16 -46 91 -95 166 -50
76 -90 139 -90 141 0 2 10 -6 23 -18 13 -12 22 -24 20 -26z m-996 -7 c-3 -3
-12 -4 -19 -1 -8 3 -5 6 6 6 11 1 17 -2 13 -5z m1358 -100 c17 -12 65 -43 109
-68 l78 -46 52 29 c28 17 66 41 85 55 42 31 61 33 54 6 -6 -22 -125 -110 -148
-110 -8 0 -16 -4 -19 -9 -15 -23 -62 -19 -104 10 -24 16 -47 29 -52 29 -12 0
-31 36 -23 44 3 3 -1 6 -9 6 -9 0 -33 16 -54 36 -22 20 -33 33 -26 29 18 -9
15 6 -5 22 -29 23 26 -5 62 -33z m-6015 -104 c0 -5 -5 -10 -11 -10 -5 0 -7 5
-4 10 3 6 8 10 11 10 2 0 4 -4 4 -10z m-42 -40 c1 -16 -2 -30 -7 -30 -5 0 -16
-3 -24 -6 -24 -9 -34 36 -11 53 28 20 40 16 42 -17z m2622 -20 c0 -5 -5 -10
-11 -10 -5 0 -7 5 -4 10 3 6 8 10 11 10 2 0 4 -4 4 -10z m1177 -32 c-3 -8 -6
-5 -6 6 -1 11 2 17 5 13 3 -3 4 -12 1 -19z m-1187 2 c0 -5 -8 -10 -17 -10 -15
0 -16 2 -3 10 19 12 20 12 20 0z m1129 -23 c0 -9 -2 -8 -6 1 -2 6 -10 9 -15 6
-7 -4 -8 -2 -4 5 9 13 26 5 25 -12z m-1144 -14 c-3 -8 -5 -20 -5 -26 0 -7 -7
-3 -15 7 -16 22 -13 33 10 33 10 0 14 -6 10 -14z m792 -16 c20 -20 18 -23 -27
-31 -19 -4 -30 -4 -24 1 9 6 8 11 -2 21 -8 7 -14 8 -14 3 0 -6 -6 -8 -14 -5
-8 3 -13 11 -10 18 7 18 71 13 91 -7z m58 -45 c-3 -3 -11 0 -18 7 -9 10 -8 11
6 5 10 -3 15 -9 12 -12z m2845 3 c0 -2 -6 -8 -13 -14 -10 -8 -14 -7 -14 2 0 8
6 14 14 14 7 0 13 -1 13 -2z m-2570 -15 c0 -5 -5 -10 -11 -10 -5 0 -7 5 -4 10
3 6 8 10 11 10 2 0 4 -4 4 -10z m-3709 -47 c0 -16 2 -39 4 -53 1 -14 8 -82 16
-152 7 -71 16 -128 21 -128 4 0 4 7 1 17 -4 11 -3 14 5 9 7 -4 12 -12 12 -19
0 -6 11 -27 24 -46 14 -20 27 -50 29 -68 3 -17 9 -39 15 -49 9 -15 11 -14 25
12 9 16 16 23 17 16 0 -7 4 -10 10 -7 6 3 10 -1 10 -10 0 -13 6 -16 26 -11 17
5 23 3 19 -4 -3 -5 1 -10 9 -10 19 0 21 -26 4 -34 -7 -3 -3 -3 9 0 18 4 22 2
17 -10 -5 -12 -2 -15 10 -10 9 3 16 1 16 -6 0 -6 -4 -9 -9 -5 -11 6 -54 -36
-45 -44 4 -3 9 0 11 7 3 6 16 12 30 12 26 0 26 0 7 -22 -17 -21 -17 -21 8 1
15 13 25 28 21 34 -3 6 -1 7 5 3 8 -5 12 1 13 16 1 18 2 19 6 5 3 -11 11 -16
19 -13 7 3 16 1 19 -5 4 -5 -1 -12 -9 -15 -9 -3 -16 -11 -16 -18 0 -6 -35 -35
-77 -64 -43 -29 -94 -66 -113 -83 -19 -16 -48 -41 -64 -54 -15 -14 -32 -25
-36 -25 -5 0 -11 -6 -14 -12 -4 -7 -4 2 -1 19 6 40 -4 71 -16 52 -4 -8 -10
-11 -13 -8 -8 8 -23 101 -30 179 -3 36 -12 135 -20 220 -23 241 -27 345 -15
379 14 39 39 41 40 4z m6529 13 c0 -3 -4 -8 -10 -11 -5 -3 -10 -1 -10 4 0 6 5
11 10 11 6 0 10 -2 10 -4z m-4057 -114 c9 -8 21 -10 28 -6 7 4 10 2 7 -6 -2
-8 4 -22 14 -32 16 -16 17 -21 4 -41 -9 -12 -37 -39 -64 -60 l-48 -39 -132 -1
c-72 0 -135 3 -139 7 -4 5 52 66 126 136 l135 128 26 -37 c15 -20 34 -42 43
-49z m1167 68 c0 -5 -4 -10 -10 -10 -5 0 -10 5 -10 10 0 6 5 10 10 10 6 0 10
-4 10 -10z m-834 -60 c27 -22 57 -40 68 -40 15 0 105 -48 126 -67 7 -7 -74
-153 -85 -153 -16 0 -156 86 -192 117 -17 15 -39 33 -48 38 -16 10 -13 17 26
77 24 37 47 67 50 67 4 1 29 -17 55 -39z m889 -49 c3 -5 1 -12 -4 -15 -5 -3
-11 1 -15 9 -6 16 9 21 19 6z m2295 -34 c0 -5 -7 -7 -15 -3 -8 3 -15 0 -15 -6
0 -6 -3 -9 -6 -5 -3 3 -4 10 0 15 7 12 36 11 36 -1z m-3420 -28 c0 -6 7 -17
15 -25 18 -18 20 -4 3 15 -7 8 0 6 15 -4 15 -10 26 -24 23 -31 -6 -16 21 -8
46 13 14 13 22 10 70 -29 29 -24 53 -46 53 -50 0 -15 38 -46 51 -41 21 8 17
-11 -12 -69 -35 -69 -114 -163 -185 -218 -31 -25 -62 -54 -68 -65 -50 -93 -85
-142 -134 -186 l-58 -51 7 43 c4 24 29 90 55 146 27 56 49 108 49 116 0 8 6
17 13 20 6 3 20 19 30 36 l18 31 -29 0 c-33 0 -51 -13 -107 -77 -37 -43 -37
-43 -22 -80 14 -38 14 -72 -1 -100 -7 -11 -22 3 -66 57 -68 84 -86 115 -86
153 0 17 -5 27 -15 27 -8 0 -15 5 -15 10 0 6 -6 10 -14 10 -20 0 -76 49 -76
66 0 9 -5 12 -10 9 -7 -4 -10 16 -9 59 1 37 6 69 12 73 10 6 66 6 102 -1 11
-2 48 -7 83 -11 60 -7 64 -6 112 26 34 23 53 43 57 62 9 43 93 103 93 66z
m3425 -18 c-3 -12 -12 -21 -20 -21 -7 0 -15 -7 -19 -15 -6 -17 9 -21 17 -5 3
6 4 5 3 -2 -1 -7 -12 -14 -24 -14 -20 -1 -20 0 -7 26 9 17 10 31 5 36 -6 6 -3
10 9 10 12 0 17 -5 13 -15 -3 -9 -1 -12 6 -7 7 4 12 14 12 23 0 9 3 14 6 10 3
-3 3 -15 -1 -26z m405 -31 c0 -5 -2 -10 -4 -10 -3 0 -8 5 -11 10 -3 6 -1 10 4
10 6 0 11 -4 11 -10z m-484 -107 c-14 -20 -26 -34 -26 -30 0 10 44 76 48 72 2
-2 -8 -21 -22 -42z m-56 17 c-11 -7 -11 -10 -2 -10 10 0 10 -3 0 -14 -7 -8
-17 -11 -22 -8 -5 3 -7 -1 -4 -10 4 -8 2 -21 -4 -29 -8 -11 -9 -10 -4 4 6 19
-10 24 -17 5 -3 -7 -6 -8 -6 -3 -1 15 60 87 67 80 4 -3 0 -10 -8 -15z m439
-50 c-33 -41 -55 -55 -64 -40 -8 12 73 92 85 85 6 -3 -4 -24 -21 -45z m121 20
c0 -5 -5 -10 -11 -10 -5 0 -7 5 -4 10 3 6 8 10 11 10 2 0 4 -4 4 -10z m-6180
-14 c0 -2 -7 -7 -16 -10 -8 -3 -12 -2 -9 4 6 10 25 14 25 6z m5809 -25 c2 -1
-2 -8 -9 -16 -6 -8 -8 -20 -4 -27 4 -7 4 -10 -1 -6 -4 4 -17 1 -29 -7 -27 -19
-33 -19 -45 4 -19 35 30 64 88 52z m160 -49 c25 -53 24 -102 -6 -194 -21 -68
-102 -186 -159 -233 -101 -84 -182 -135 -234 -149 -19 -6 -21 -5 -10 3 15 11
16 11 -65 16 -38 2 -90 17 -105 30 -19 17 -31 19 -39 6 -5 -7 -16 -6 -34 4
-15 8 -25 9 -21 4 4 -8 1 -8 -12 -1 -26 14 -66 62 -52 62 6 0 8 3 5 7 -4 3 3
11 16 18 15 8 25 8 32 0 6 -5 9 -8 8 -6 -2 2 2 10 9 18 8 11 7 12 -5 8 -8 -4
-18 -1 -23 6 -5 8 -3 10 7 5 8 -4 7 -1 -2 5 -15 11 -15 14 5 32 11 10 15 16 9
12 -18 -9 -17 29 0 44 8 6 16 10 18 8 2 -1 1 2 -3 7 -4 5 2 16 13 25 11 9 21
23 22 31 2 8 15 28 30 44 31 33 37 58 7 31 -11 -10 -17 -23 -13 -29 3 -6 2 -8
-2 -3 -5 4 -22 -5 -39 -20 -16 -16 18 24 78 87 98 104 136 135 136 109 0 -6 4
-8 9 -5 5 3 11 -1 15 -9 3 -8 2 -14 -2 -14 -18 3 -26 -2 -14 -10 9 -5 3 -8
-17 -7 -34 1 -44 16 -11 16 22 0 27 16 8 23 -15 5 -78 -61 -78 -81 0 -7 -4
-10 -10 -7 -5 3 -10 1 -10 -4 0 -13 11 -14 35 -5 9 4 12 9 7 13 -6 4 -4 14 5
26 13 16 15 17 10 3 -8 -22 8 -24 17 -3 3 8 10 15 17 15 6 0 8 -7 5 -16 -5
-14 -4 -15 9 -4 13 11 14 10 9 -5 -5 -12 -4 -16 4 -11 8 4 8 -3 1 -26 -7 -24
-5 -40 9 -67 14 -31 23 -36 55 -39 32 -3 50 5 109 45 78 53 155 131 189 193
12 22 26 40 29 40 4 0 17 -22 29 -48z m-422 23 c0 -8 -7 -15 -15 -15 -12 0
-12 3 -2 15 7 8 13 15 15 15 1 0 2 -7 2 -15z m46 -10 c-3 -9 -8 -14 -10 -11
-3 3 -2 9 2 15 9 16 15 13 8 -4z m22 -15 c-9 -16 -18 -30 -21 -30 -2 0 2 14
11 30 9 17 18 30 21 30 2 0 -2 -13 -11 -30z m-1508 -42 c46 -10 72 -23 62 -32
-2 -3 -22 -1 -44 5 -46 10 -223 13 -248 3 -10 -3 -17 -1 -17 5 0 26 153 38
247 19z m1290 -13 c8 -22 -4 -30 -20 -16 -21 17 -35 7 -120 -90 -43 -49 -83
-89 -88 -89 -16 0 15 38 103 127 79 81 113 99 125 68z m183 -5 c-6 -11 -13
-20 -16 -20 -2 0 0 9 6 20 6 11 13 20 16 20 2 0 0 -9 -6 -20z m-1770 -58 c0
-5 -26 -19 -57 -32 -32 -12 -72 -31 -89 -41 -38 -23 -51 -24 -34 -4 7 8 9 15
4 15 -13 0 45 34 91 53 43 17 85 22 85 9z m696 -8 c29 -4 44 -11 44 -21 0 -11
-7 -13 -32 -7 -18 4 -102 7 -185 5 -124 -2 -153 1 -153 12 0 11 29 14 141 16
78 1 161 -1 185 -5z m-559 -89 c-4 -8 -1 -17 5 -21 6 -4 8 -3 5 3 -4 6 5 14
21 18 46 13 52 14 45 2 -4 -7 0 -8 13 -3 10 4 28 9 39 11 19 4 19 4 2 -9 -21
-17 -13 -24 26 -22 19 1 26 -2 22 -11 -3 -11 0 -11 15 -3 11 6 20 13 20 16 0
3 -4 2 -10 -1 -5 -3 -10 -1 -10 5 0 8 6 9 18 4 9 -5 90 -10 180 -12 116 -2
161 -6 156 -14 -4 -7 -3 -8 4 -4 12 7 140 -72 141 -87 1 -5 -5 -5 -11 -1 -7 4
-2 -4 12 -18 38 -39 50 -56 51 -70 1 -7 5 1 8 17 6 23 9 8 15 -60 4 -49 14
-144 22 -210 15 -126 18 -235 8 -235 -4 0 -30 20 -58 43 -62 53 -85 66 -151
83 -110 30 -238 14 -360 -45 -120 -57 -244 -179 -245 -240 -1 -23 -4 -21 -25
19 -36 66 -80 209 -105 335 -11 61 -27 138 -35 172 -8 33 -17 84 -19 113 -5
47 -4 51 11 38 15 -11 16 -10 11 10 -5 18 -1 25 15 32 12 5 18 9 14 9 -5 1 -1
8 8 17 10 10 13 24 9 37 -5 15 -3 19 9 14 9 -3 18 1 21 9 3 8 1 14 -4 14 -6 0
-10 5 -10 11 0 6 9 8 21 4 16 -5 19 -4 14 6 -6 9 -3 11 9 6 13 -5 17 -3 13 7
-4 10 -1 13 9 9 16 -6 18 -14 7 -29 -5 -5 3 3 17 18 28 31 35 35 27 13z m695
-11 c16 -3 25 -10 22 -15 -3 -5 2 -6 10 -3 9 3 16 1 16 -5 0 -6 9 -11 19 -11
11 0 23 -4 26 -10 9 -14 -11 -11 -84 13 -36 12 -67 28 -69 36 -3 9 2 11 14 8
11 -4 31 -9 46 -13z m688 -18 c0 -2 -7 -7 -16 -10 -8 -3 -12 -2 -9 4 6 10 25
14 25 6z m-511 -58 c13 -5 22 -11 19 -13 -3 -3 -25 4 -49 15 -41 19 -22 18 30
-2z m-4520 -1 c-32 -24 -128 -90 -179 -124 -36 -23 -69 -46 -75 -51 -27 -22
-38 -23 -20 -2 23 26 268 191 274 184 2 -2 2 -5 0 -7z m199 -12 c-3 -3 -9 2
-12 12 -6 14 -5 15 5 6 7 -7 10 -15 7 -18z m-696 -22 c-6 -3 -10 -9 -6 -14 3
-5 0 -9 -5 -9 -15 0 -14 27 2 33 6 2 14 2 17 -1 3 -2 -1 -7 -8 -9z m668 7 c0
-5 -5 -10 -11 -10 -5 0 -7 5 -4 10 3 6 8 10 11 10 2 0 4 -4 4 -10z m-170 -20
c-12 -8 -12 -10 5 -10 17 0 17 -2 5 -10 -22 -14 -26 -12 -27 10 -1 13 4 20 15
20 15 0 15 -2 2 -10z m180 -15 c-7 -9 -15 -13 -17 -11 -6 6 20 36 26 30 2 -2
-2 -10 -9 -19z m57 -9 c-15 -31 -20 -27 -11 8 3 14 10 24 14 21 5 -3 3 -16 -3
-29z m-212 -16 c-3 -5 -10 -10 -16 -10 -5 0 -9 5 -9 10 0 6 7 10 16 10 8 0 12
-4 9 -10z m185 -22 c0 -5 -4 -7 -9 -4 -5 4 -11 0 -14 -6 -3 -7 -4 -3 -4 8 1
21 27 23 27 2z m-80 -8 c0 -5 -5 -10 -11 -10 -5 0 -7 5 -4 10 3 6 8 10 11 10
2 0 4 -4 4 -10z m2180 0 c0 -5 -7 -7 -15 -4 -8 4 -15 8 -15 10 0 2 7 4 15 4 8
0 15 -4 15 -10z m744 -11 c14 -7 22 -17 19 -23 -4 -7 -1 -6 8 1 9 7 40 11 77
9 37 -1 63 2 66 8 2 6 5 3 5 -6 1 -10 6 -18 11 -18 6 0 18 -13 29 -30 10 -16
21 -27 24 -23 4 3 7 2 7 -4 0 -6 -7 -16 -15 -23 -18 -15 -20 -40 -3 -40 15 0
4 -11 -15 -14 -23 -3 -48 -27 -40 -39 3 -6 1 -7 -5 -3 -14 8 -41 -9 -143 -86
-42 -32 -81 -58 -87 -58 -7 0 -11 -6 -9 -12 2 -13 -53 -19 -63 -8 -9 11 -68
50 -74 50 -3 0 -6 -8 -6 -17 0 -13 -3 -14 -12 -5 -8 8 -8 15 2 27 8 10 9 15 1
15 -6 0 -14 12 -18 28 l-7 27 -6 -24 c-3 -14 -12 -26 -20 -29 -9 -2 -11 0 -5
5 6 4 11 17 13 28 13 78 89 183 177 241 56 38 55 38 89 23z m-2870 -52 c-6
-17 -24 -14 -24 4 0 6 5 7 12 3 8 -5 9 -1 4 12 -5 14 -4 16 4 8 6 -6 8 -18 4
-27z m-650 -3 c3 -8 2 -12 -4 -9 -6 3 -10 10 -10 16 0 14 7 11 14 -7z m271
-14 c-3 -5 -12 -10 -18 -10 -7 0 -6 4 3 10 19 12 23 12 15 0z m-115 -16 c0 -2
-10 -9 -22 -15 -20 -11 -21 -10 -11 3 7 8 10 18 6 22 -4 4 0 4 10 0 9 -3 17
-8 17 -10z m1334 -15 c-56 -63 -559 -476 -614 -504 -35 -18 -39 -8 -10 23 26
28 25 32 -7 26 -33 -6 -40 -13 115 112 159 127 151 122 161 106 7 -11 11 -11
22 1 8 7 24 19 37 26 12 6 22 16 22 21 0 17 -18 11 -44 -15 -14 -14 -27 -21
-30 -16 -3 4 13 23 36 41 23 19 38 29 35 23 -4 -7 -4 -14 0 -16 13 -7 55 12
48 22 -3 5 -1 12 4 16 6 3 8 -6 5 -21 -4 -24 -3 -26 11 -14 8 7 15 18 15 24 0
7 12 23 27 37 14 13 23 18 19 12 -8 -15 3 -17 24 -3 12 8 12 10 -4 16 -14 5
-15 9 -5 15 8 5 16 3 21 -4 4 -7 27 6 65 40 62 56 78 66 47 32z m-1305 -7 c-7
-10 -19 -19 -27 -19 -11 0 -9 6 8 19 12 10 24 18 26 18 2 0 -1 -8 -7 -18z
m-106 -6 c4 -10 1 -13 -8 -9 -8 3 -12 9 -9 14 7 12 11 11 17 -5z m-68 -76 c-3
-5 -12 -10 -18 -10 -7 0 -6 4 3 10 19 12 23 12 15 0z m60 -19 c3 -5 1 -12 -4
-15 -5 -3 -11 1 -15 9 -6 16 9 21 19 6z m3590 -21 c-10 -11 -21 -18 -23 -15
-3 3 3 12 14 20 27 20 30 18 9 -5z m-35 -24 c0 -3 -15 -14 -32 -26 l-33 -22
28 26 c27 25 37 31 37 22z m-3620 -16 c0 -5 -4 -10 -10 -10 -5 0 -10 5 -10 10
0 6 5 10 10 10 6 0 10 -4 10 -10z m323 -47 c-5 -12 -3 -14 8 -8 8 4 2 -4 -13
-19 -15 -14 -32 -26 -38 -26 -5 0 -10 -4 -10 -10 0 -5 -5 -10 -12 -10 -17 0
33 50 51 51 11 0 12 2 3 6 -10 4 -10 8 -1 19 15 19 20 18 12 -3z m-33 -3 c0
-5 -5 -10 -11 -10 -5 0 -7 5 -4 10 3 6 8 10 11 10 2 0 4 -4 4 -10z m2943 -5
c-3 -9 -8 -14 -10 -11 -3 3 -2 9 2 15 9 16 15 13 8 -4z m37 11 c0 -3 -4 -8
-10 -11 -5 -3 -10 -1 -10 4 0 6 5 11 10 11 6 0 10 -2 10 -4z m-2342 -45 c-18
-17 -36 -31 -40 -31 -9 0 -4 28 7 37 4 4 5 2 1 -4 -12 -22 9 -14 34 12 13 14
25 23 28 21 2 -3 -11 -18 -30 -35z m4714 15 c7 4 4 -2 -6 -14 -25 -29 -16 -37
12 -11 13 11 19 25 15 32 -10 16 84 -63 125 -106 l33 -34 -58 -12 c-39 -7 -59
-8 -61 -1 -2 5 -8 10 -14 10 -6 0 -8 -6 -5 -13 4 -10 -11 -18 -45 -27 -43 -11
-52 -10 -65 3 -13 13 -13 18 2 41 14 21 15 29 5 41 -7 8 -9 15 -4 15 5 0 2 5
-6 10 -10 6 -11 10 -2 10 6 0 12 7 12 15 0 8 5 15 11 15 5 0 7 -4 4 -10 -3 -5
-2 -10 3 -10 14 0 23 28 12 35 -6 4 -10 11 -10 17 0 7 5 6 15 -2 8 -6 20 -8
27 -4z m-5499 -22 c10 -11 -4 -33 -18 -28 -8 3 -11 12 -8 20 5 15 16 18 26 8z
m47 -18 c0 -2 -7 -7 -16 -10 -8 -3 -12 -2 -9 4 6 10 25 14 25 6z m4257 -2 c-3
-3 -12 -4 -19 -1 -8 3 -5 6 6 6 11 1 17 -2 13 -5z m-4224 -16 c3 -8 -4 -13
-19 -13 -28 0 -32 11 -6 18 9 3 18 5 18 6 1 0 4 -5 7 -11z m637 -15 c-12 -8
-24 -12 -27 -9 -3 3 2 8 11 12 9 3 13 10 10 15 -3 5 2 6 11 3 14 -6 13 -9 -5
-21z m-884 -18 c-9 -9 -16 -13 -16 -8 0 12 22 34 28 28 2 -2 -3 -11 -12 -20z
m5578 0 c-5 -12 -2 -13 12 -8 11 4 -3 -16 -30 -44 -43 -45 -76 -59 -76 -33 0
14 18 21 25 10 4 -6 11 -8 16 -4 6 4 6 11 -1 19 -12 15 3 30 20 20 6 -3 12 1
15 9 3 9 7 23 10 31 2 8 7 15 9 15 3 0 3 -7 0 -15z m-4759 -12 c-5 -15 -4 -16
6 -5 7 6 18 12 23 12 6 0 -7 -18 -29 -40 -21 -21 -42 -37 -46 -35 -4 3 -9 -2
-13 -10 -6 -17 -36 -21 -36 -4 0 5 5 7 11 3 8 -5 8 -1 0 14 -15 29 -14 42 5
42 14 0 14 -3 4 -15 -9 -10 -9 -15 -1 -15 11 0 13 5 15 33 1 17 27 36 50 37
13 0 16 -5 11 -17z m-108 -69 c-3 -3 -12 -4 -19 -1 -8 3 -5 6 6 6 11 1 17 -2
13 -5z m4852 -15 c-22 -13 -31 -11 -17 5 7 8 17 12 22 9 4 -3 2 -9 -5 -14z
m-4885 -30 c-4 -8 1 -9 17 -5 23 7 23 7 4 -8 -11 -8 -25 -20 -32 -26 -7 -5
-18 -10 -25 -10 -9 0 -9 3 2 10 11 7 11 10 2 10 -7 0 -10 5 -7 11 4 6 13 8 21
5 8 -3 13 -2 13 2 -2 12 1 22 7 22 3 0 2 -5 -2 -11z m4816 7 c0 -3 -4 -8 -10
-11 -5 -3 -10 -1 -10 4 0 6 5 11 10 11 6 0 10 -2 10 -4z m-4620 -26 c0 -5 -5
-10 -11 -10 -5 0 -7 5 -4 10 3 6 8 10 11 10 2 0 4 -4 4 -10z m997 -88 c1 -10
-5 -19 -13 -19 -17 0 -18 9 -2 25 15 15 13 15 15 -6z m-1247 -46 c0 -2 -7 -9
-15 -16 -13 -11 -14 -10 -9 4 5 14 24 23 24 12z m1225 -6 c3 -5 1 -10 -4 -10
-6 0 -11 5 -11 10 0 6 2 10 4 10 3 0 8 -4 11 -10z"/>
<path d="M823 6988 c-18 -13 -33 -27 -33 -32 0 -5 12 1 28 15 15 13 31 27 37
31 20 17 -2 7 -32 -14z"/>
<path d="M655 6840 c3 -5 1 -10 -5 -10 -6 0 -9 -4 -5 -9 3 -6 -1 -13 -8 -18
-9 -5 -11 -17 -7 -33 l6 -25 12 23 c10 18 10 22 0 22 -7 0 -1 11 15 24 23 20
25 25 11 30 -22 8 -26 8 -19 -4z"/>
<path d="M2960 6495 c0 -8 2 -15 4 -15 2 0 6 7 10 15 3 8 1 15 -4 15 -6 0 -10
-7 -10 -15z"/>
<path d="M3004 6483 c-3 -16 -7 -34 -10 -40 -2 -8 5 -13 16 -13 17 0 20 7 20
40 0 46 -17 54 -26 13z"/>
<path d="M2950 6270 c0 -11 5 -20 10 -20 6 0 10 9 10 20 0 11 -4 20 -10 20 -5
0 -10 -9 -10 -20z"/>
<path d="M5760 6105 c7 -8 20 -15 29 -14 12 0 11 2 -4 9 -17 7 -14 9 14 9 28
1 32 -1 21 -14 -10 -12 -10 -16 1 -19 17 -5 49 -4 49 2 0 16 -51 41 -84 42
-33 0 -37 -2 -26 -15z m85 -15 c3 -5 1 -10 -4 -10 -6 0 -11 5 -11 10 0 6 2 10
4 10 3 0 8 -4 11 -10z"/>
<path d="M3281 6044 c0 -11 3 -14 6 -6 3 7 2 16 -1 19 -3 4 -6 -2 -5 -13z"/>
<path d="M3273 5915 c0 -27 2 -38 4 -22 2 15 2 37 0 50 -2 12 -4 0 -4 -28z"/>
<path d="M4476 5835 c-41 -64 -50 -80 -34 -65 17 17 62 90 55 90 -3 0 -12 -11
-21 -25z"/>
<path d="M4287 5679 c-133 -136 -135 -139 -133 -229 2 -50 9 -89 22 -118 l20
-42 1 49 c0 27 5 56 10 66 8 13 9 3 5 -34 -3 -34 -1 -51 7 -51 6 0 11 6 11 14
0 8 18 58 39 112 22 54 37 102 34 107 -3 6 -2 7 4 4 5 -3 24 23 41 59 18 36
28 63 22 59 -18 -11 -91 -125 -121 -189 -16 -33 -27 -50 -23 -36 10 37 59 134
117 228 27 45 47 85 44 89 -4 3 -49 -36 -100 -88z"/>
<path d="M6141 5734 c0 -11 3 -14 6 -6 3 7 2 16 -1 19 -3 4 -6 -2 -5 -13z"/>
<path d="M6153 5690 c10 -43 27 -202 27 -259 0 -64 6 -64 14 -2 5 45 -27 267
-40 280 -4 3 -4 -5 -1 -19z"/>
<path d="M5467 5665 c-4 -8 -2 -17 3 -20 6 -4 10 3 10 14 0 25 -6 27 -13 6z"/>
<path d="M5843 5485 c0 -22 2 -30 4 -17 2 12 2 30 0 40 -3 9 -5 -1 -4 -23z"/>
<path d="M3301 5354 c0 -11 3 -14 6 -6 3 7 2 16 -1 19 -3 4 -6 -2 -5 -13z"/>
<path d="M4921 5343 c-19 -8 -30 -18 -25 -21 6 -4 13 -15 17 -25 4 -10 11 -15
17 -12 6 4 8 10 6 14 -3 4 8 5 25 3 24 -3 29 -9 29 -30 l0 -26 16 22 c8 12 21
22 27 22 7 0 4 -7 -5 -14 -19 -14 -25 -32 -8 -21 6 3 13 -1 16 -9 3 -9 10 -16
16 -16 5 0 7 3 4 8 -2 4 2 16 11 27 14 19 14 19 8 -7 -6 -24 -4 -26 19 -24 14
2 26 -1 26 -5 0 -5 5 -9 11 -9 6 0 9 7 5 15 -9 23 3 18 35 -16 24 -25 30 -28
35 -15 20 52 -93 133 -197 140 -19 1 -40 5 -45 8 -5 3 -24 -1 -43 -9z"/>
<path d="M3276 5327 c3 -10 9 -15 12 -12 3 3 0 11 -7 18 -10 9 -11 8 -5 -6z"/>
<path d="M3275 5271 c-3 -5 -1 -12 5 -16 5 -3 10 1 10 9 0 18 -6 21 -15 7z"/>
<path d="M3275 5229 c-4 -6 -5 -12 -2 -15 2 -3 7 2 10 11 7 17 1 20 -8 4z"/>
<path d="M3272 5180 c0 -14 2 -19 5 -12 2 6 2 18 0 25 -3 6 -5 1 -5 -13z"/>
<path d="M6133 5060 c0 -36 2 -50 4 -32 2 17 2 47 0 65 -2 17 -4 3 -4 -33z"/>
<path d="M5623 5071 c-23 -11 -47 -29 -53 -42 l-13 -22 26 20 c30 24 70 22 98
-3 17 -15 19 -15 19 -1 0 8 -6 18 -12 20 -24 10 10 7 35 -2 15 -6 34 -30 50
-64 29 -58 33 -72 17 -62 -6 4 -7 12 -3 18 4 7 0 6 -10 -2 -19 -15 -20 -20 -8
-39 6 -11 13 -9 32 10 14 14 32 29 41 34 23 13 35 64 15 64 -9 0 -19 -4 -22
-10 -10 -16 -35 -12 -35 5 0 9 10 19 21 24 20 7 17 10 -26 36 -63 36 -118 41
-172 16z"/>
<path d="M3291 5054 c0 -11 3 -14 6 -6 3 7 2 16 -1 19 -3 4 -6 -2 -5 -13z"/>
<path d="M5850 5040 c0 -6 4 -9 9 -5 5 3 12 -2 14 -10 4 -12 5 -12 3 1 -1 19
-26 32 -26 14z"/>
<path d="M4501 5014 c0 -11 3 -14 6 -6 3 7 2 16 -1 19 -3 4 -6 -2 -5 -13z"/>
<path d="M4791 4950 c-12 -79 -7 -150 10 -150 5 0 10 5 10 10 1 6 2 13 3 18 1
4 6 26 10 50 4 23 12 39 17 36 6 -3 3 11 -5 31 -9 21 -16 48 -16 61 0 53 -17
19 -29 -56z"/>
<path d="M3256 4965 c-11 -8 -17 -17 -14 -20 2 -3 13 4 23 15 21 23 18 25 -9
5z"/>
<path d="M6116 4913 c-4 -32 -13 -91 -22 -131 -9 -40 -14 -76 -11 -78 3 -3 12
25 20 63 17 77 32 203 24 203 -3 0 -8 -26 -11 -57z"/>
<path d="M3240 4857 c0 -36 3 -68 8 -71 7 -4 4 125 -4 133 -2 2 -4 -25 -4 -62z"/>
<path d="M4870 4846 c0 -10 59 -96 66 -96 3 0 -9 21 -27 48 -39 57 -39 57 -39
48z"/>
<path d="M3210 4700 c0 -46 3 -81 6 -77 7 7 7 148 -1 155 -3 3 -5 -32 -5 -78z"/>
<path d="M3243 4730 c0 -25 2 -35 4 -22 2 12 2 32 0 45 -2 12 -4 2 -4 -23z"/>
<path d="M5310 4710 c-9 -6 -10 -10 -3 -10 6 0 15 5 18 10 8 12 4 12 -15 0z"/>
<path d="M3242 4645 c0 -16 2 -22 5 -12 2 9 2 23 0 30 -3 6 -5 -1 -5 -18z"/>
<path d="M5957 4595 c-9 -19 -13 -35 -9 -35 8 0 34 61 29 67 -2 1 -11 -13 -20
-32z"/>
<path d="M3241 4584 c0 -11 3 -14 6 -6 3 7 2 16 -1 19 -3 4 -6 -2 -5 -13z"/>
<path d="M5994 4558 l-19 -23 23 19 c12 11 22 21 22 23 0 8 -8 2 -26 -19z"/>
<path d="M6030 4526 c-5 -15 -10 -32 -10 -37 0 -5 -5 -9 -11 -9 -5 0 -7 -5 -4
-10 10 -17 -18 -52 -74 -95 -29 -23 -47 -43 -42 -48 10 -10 60 13 86 40 16 16
17 15 12 -18 l-6 -34 10 35 c46 151 57 195 54 199 -3 2 -9 -8 -15 -23z"/>
<path d="M5925 4530 c-3 -5 -1 -10 4 -10 6 0 11 5 11 10 0 6 -2 10 -4 10 -3 0
-8 -4 -11 -10z"/>
<path d="M5975 4493 c-30 -35 -41 -43 -43 -30 -4 20 -18 22 -28 5 -4 -7 -3 -8
4 -4 11 6 16 -6 13 -26 -3 -20 21 -4 52 35 62 77 64 92 2 20z"/>
<path d="M3230 4424 c0 -26 -4 -35 -13 -31 -10 4 -14 -8 -15 -46 -2 -38 0 -48
8 -37 5 8 10 10 10 4 0 -6 -3 -14 -7 -17 -12 -13 -19 -132 -33 -592 -17 -551
-14 -518 -44 -568 -14 -25 -22 -48 -18 -52 4 -5 2 -6 -4 -2 -5 3 -36 -9 -68
-27 l-58 -33 66 -6 c55 -5 74 -12 104 -37 l37 -30 3 66 c3 57 8 75 44 132 201
327 360 622 362 674 1 14 4 24 8 22 4 -3 12 15 18 38 6 24 27 92 46 152 19 60
32 111 29 114 -3 3 -5 1 -5 -5 0 -6 -12 -18 -26 -28 -22 -14 -28 -15 -35 -4
-7 11 -9 10 -9 -3 0 -10 -12 -24 -27 -32 -24 -13 -25 -15 -8 -16 16 -1 14 -4
-7 -12 -16 -5 -28 -16 -28 -24 0 -8 -6 -14 -14 -14 -9 0 -13 -9 -11 -26 1 -15
-3 -28 -11 -31 -8 -3 -14 -19 -14 -37 0 -17 -7 -42 -16 -54 -8 -12 -13 -32
-10 -45 3 -12 3 -16 0 -9 -8 17 -27 15 -20 -3 3 -10 -1 -15 -12 -15 -12 0 -13
-3 -4 -8 9 -6 7 -14 -9 -31 -17 -18 -18 -25 -9 -36 10 -12 9 -15 -4 -15 -24 0
-19 -29 7 -40 l22 -9 -22 0 c-16 -1 -21 -6 -17 -16 4 -9 0 -15 -7 -15 -11 0
-11 -3 1 -10 8 -5 11 -10 5 -10 -5 0 -11 -19 -12 -43 -4 -91 -8 -125 -15 -121
-4 3 -5 -2 -2 -10 7 -20 -66 -53 -77 -35 -4 6 -12 8 -18 5 -7 -5 -11 8 -11 39
0 27 -4 44 -10 40 -6 -3 -8 146 -5 402 2 224 1 417 -2 428 l-6 20 -8 -20 c-8
-21 -13 40 -9 118 1 20 -1 37 -4 37 -3 0 -6 -16 -6 -36z m-13 -86 c-3 -7 -5
-2 -5 12 0 14 2 19 5 13 2 -7 2 -19 0 -25z m428 -268 c-3 -5 -11 -10 -16 -10
-6 0 -7 5 -4 10 3 6 11 10 16 10 6 0 7 -4 4 -10z m10 -57 c-5 -10 -7 -22 -6
-26 1 -5 -3 -6 -8 -3 -5 4 -5 16 2 30 13 28 24 27 12 -1z"/>
<path d="M5785 4440 c-25 -10 -63 -50 -46 -50 7 0 9 -4 6 -10 -10 -17 0 -11
38 18 36 29 38 55 2 42z m5 -13 c0 -2 -10 -12 -22 -23 l-23 -19 19 23 c18 21
26 27 26 19z"/>
<path d="M5889 4437 c-1 -4 -2 -10 -3 -14 -1 -5 -5 -14 -10 -21 -14 -22 0 -23
19 -2 14 16 16 23 7 32 -7 7 -13 9 -13 5z"/>
<path d="M5705 4370 c-3 -5 -2 -10 4 -10 5 0 13 5 16 10 3 6 2 10 -4 10 -5 0
-13 -4 -16 -10z"/>
<path d="M5959 4288 c-6 -13 -21 -34 -33 -48 l-21 -25 24 20 c22 19 57 75 47
75 -3 0 -11 -10 -17 -22z"/>
<path d="M6791 4274 c0 -11 3 -14 6 -6 3 7 2 16 -1 19 -3 4 -6 -2 -5 -13z"/>
<path d="M3106 4272 c-2 -4 12 -6 32 -4 56 5 62 10 15 11 -23 1 -44 -3 -47 -7z"/>
<path d="M4024 4256 c4 -11 -1 -27 -11 -39 -18 -19 -17 -20 5 -6 24 15 27 27
11 49 -9 12 -10 12 -5 -4z"/>
<path d="M4040 4194 c0 -6 7 -19 16 -30 14 -18 14 -18 3 6 -14 31 -19 36 -19
24z"/>
<path d="M3660 4135 c-14 -16 -3 -20 19 -6 8 5 9 11 3 15 -5 3 -15 -1 -22 -9z"/>
<path d="M3070 4070 l-35 -7 35 -1 c19 0 49 4 65 8 l30 8 -30 0 c-16 -1 -46
-4 -65 -8z"/>
<path d="M4521 4061 c-7 -5 -11 -13 -7 -19 3 -6 2 -13 -4 -17 -5 -3 -10 -1
-10 6 0 10 -3 10 -12 1 -6 -6 -8 -15 -4 -19 10 -11 38 10 47 35 9 25 9 25 -10
13z"/>
<path d="M3713 3928 c-6 -7 -18 -47 -27 -88 -9 -41 -34 -113 -56 -160 -37 -78
-40 -92 -40 -171 0 -47 5 -111 11 -142 15 -72 23 -73 149 -8 200 102 195 98
210 163 7 32 24 75 39 97 14 21 41 60 59 87 l32 48 -23 23 c-13 14 -55 32
-101 45 -51 14 -103 37 -152 69 -81 53 -87 55 -101 37z m103 -109 c16 -17 57
-53 92 -81 59 -48 73 -72 34 -61 -14 3 -34 -15 -76 -65 -31 -39 -64 -73 -72
-76 -23 -9 -7 -26 25 -26 33 0 57 24 100 100 17 30 31 48 31 40 0 -19 -66
-131 -88 -147 -9 -7 -33 -13 -55 -13 -40 0 -77 -14 -77 -30 0 -5 7 -6 17 -3
11 4 14 3 9 -5 -11 -19 -37 -14 -43 8 -7 27 -20 25 -26 -2 -4 -16 -5 -14 -4 7
1 17 -4 39 -11 50 -10 17 -11 12 -12 -36 0 -30 5 -60 12 -67 9 -9 9 -15 0 -24
-20 -20 -29 4 -31 80 -1 37 -5 77 -8 90 -6 26 12 30 26 5 8 -15 10 -13 16 12
4 17 13 46 21 65 l15 35 -5 -46 c-7 -58 1 -87 26 -95 13 -4 26 2 39 17 23 26
24 30 5 23 -44 -17 -68 104 -37 183 22 56 46 64 46 16 0 -39 8 -48 33 -34 15
8 24 6 41 -13 12 -12 18 -26 14 -30 -4 -4 1 -4 11 0 16 6 9 17 -53 75 -39 38
-71 71 -71 74 0 15 30 1 56 -26z m4 -54 c11 -13 10 -14 -4 -9 -9 3 -16 10 -16
15 0 13 6 11 20 -6z m-105 -15 c3 -5 1 -10 -4 -10 -6 0 -11 5 -11 10 0 6 2 10
4 10 3 0 8 -4 11 -10z m-18 -52 c-3 -7 -5 -2 -5 12 0 14 2 19 5 13 2 -7 2 -19
0 -25z m98 -258 c-3 -5 -12 -10 -18 -10 -7 0 -6 4 3 10 19 12 23 12 15 0z
m-71 -9 c3 -4 -3 -16 -14 -26 -12 -10 -20 -13 -20 -7 0 7 6 12 13 13 9 0 9 2
-1 6 -6 2 -10 9 -6 14 7 11 21 12 28 0z"/>
<path d="M3758 3685 c-8 -18 -8 -28 1 -39 17 -20 50 -9 44 15 -5 18 -6 19 -19
2 -12 -17 -13 -17 -14 4 0 29 12 35 44 23 26 -10 36 -43 16 -55 -5 -3 -10 -12
-10 -18 1 -7 9 -1 20 11 16 20 18 28 8 45 -23 45 -72 51 -90 12z"/>
<path d="M3778 3614 c6 -3 10 -10 6 -15 -3 -5 2 -9 11 -9 23 0 13 24 -11 27
-10 2 -13 0 -6 -3z"/>
<path d="M4352 3595 c0 -16 2 -22 5 -12 2 9 2 23 0 30 -3 6 -5 -1 -5 -18z"/>
<path d="M5600 3410 c-8 -5 -10 -10 -5 -10 6 0 17 5 25 10 8 5 11 10 5 10 -5
0 -17 -5 -25 -10z"/>
<path d="M6568 3295 c-37 -25 -71 -45 -76 -45 -4 0 -36 -20 -70 -44 -44 -31
-58 -45 -47 -49 8 -4 14 -1 12 5 -1 6 4 13 12 16 9 3 11 0 6 -9 -5 -7 16 2 46
19 30 17 53 36 52 41 -2 6 5 7 14 4 12 -5 14 -3 8 7 -5 8 -4 11 2 7 6 -4 32 5
57 19 26 14 54 23 62 20 13 -5 15 -2 10 16 -3 13 -6 26 -6 31 0 14 -16 7 -82
-38z m-117 -95 c-13 -11 -28 -20 -35 -20 -6 0 3 9 19 20 38 25 47 25 16 0z"/>
<path d="M6666 3250 c3 -14 11 -32 16 -40 6 -10 7 -7 2 10 -3 14 -11 32 -16
40 -6 10 -7 7 -2 -10z"/>
<path d="M4143 3210 c0 -25 2 -35 4 -22 2 12 2 32 0 45 -2 12 -4 2 -4 -23z"/>
<path d="M6814 2854 c-18 -14 -18 -15 4 -4 12 6 22 13 22 15 0 8 -5 6 -26 -11z"/>
<path d="M3045 2335 c-4 -37 -5 -69 -2 -72 3 -2 8 25 12 62 4 36 5 68 2 71 -2
3 -8 -25 -12 -61z"/>
<path d="M3071 2374 c0 -11 3 -14 6 -6 3 7 2 16 -1 19 -3 4 -6 -2 -5 -13z"/>
<path d="M2734 2099 c-3 -6 -1 -16 5 -22 8 -8 11 -5 11 11 0 24 -5 28 -16 11z"/>
<path d="M3310 2015 c0 -8 7 -15 15 -15 8 0 15 4 15 9 0 5 -7 11 -15 15 -9 3
-15 0 -15 -9z"/>
<path d="M3175 2010 c4 -7 1 -16 -6 -21 -11 -7 -10 -9 4 -9 9 0 17 5 17 11 0
5 5 7 10 4 6 -3 10 -4 10 -1 0 3 -10 10 -21 17 -17 8 -20 8 -14 -1z"/>
<path d="M3350 1976 c0 -23 16 -27 17 -5 1 10 -2 19 -8 19 -5 0 -9 -6 -9 -14z"/>
<path d="M2815 1920 c-10 -11 -13 -20 -7 -20 6 0 16 9 22 20 6 11 9 20 7 20
-2 0 -12 -9 -22 -20z"/>
<path d="M3370 1936 c0 -2 7 -9 15 -16 13 -11 14 -10 9 4 -5 14 -24 23 -24 12z"/>
<path d="M810 6880 c-8 -5 -12 -11 -9 -14 2 -3 11 -1 19 4 8 5 12 11 9 14 -2
3 -11 1 -19 -4z"/>
<path d="M839 6843 l-24 -26 27 19 c15 10 28 22 28 27 0 12 -5 8 -31 -20z"/>
<path d="M840 6810 c0 -13 18 -22 24 -11 3 5 -1 11 -9 15 -8 3 -15 1 -15 -4z"/>
<path d="M791 6791 c-5 -4 -4 -13 3 -23 12 -16 14 -16 24 6 8 18 7 23 -4 23
-7 0 -18 -3 -23 -6z"/>
<path d="M755 6750 c-3 -5 -1 -18 5 -27 9 -15 11 -15 7 -2 -3 9 0 22 6 28 8 8
8 11 0 11 -7 0 -15 -4 -18 -10z"/>
<path d="M842 6744 c-10 -11 -10 -18 -2 -32 10 -15 11 -15 6 0 -3 9 0 18 6 20
6 2 9 9 7 15 -3 7 -8 6 -17 -3z"/>
<path d="M780 6723 c0 -10 4 -14 8 -8 4 6 11 13 16 18 5 4 2 7 -7 7 -10 0 -17
-8 -17 -17z"/>
<path d="M706 6705 c-11 -8 -16 -15 -10 -15 5 0 18 7 28 15 11 8 16 15 10 15
-5 0 -18 -7 -28 -15z"/>
<path d="M690 6670 c0 -5 5 -10 10 -10 6 0 10 5 10 10 0 6 -4 10 -10 10 -5 0
-10 -4 -10 -10z"/>
<path d="M687 6633 c3 -7 9 -10 14 -7 14 8 11 21 -5 21 -8 0 -12 -6 -9 -14z"/>
<path d="M1430 5395 c7 -8 20 -15 28 -15 13 0 12 3 -4 15 -25 19 -40 19 -24 0z"/>
<path d="M1231 5324 c0 -11 3 -14 6 -6 3 7 2 16 -1 19 -3 4 -6 -2 -5 -13z"/>
<path d="M1242 5230 c-2 -41 0 -45 21 -45 16 0 22 6 24 25 1 20 0 21 -8 7 -16
-27 -28 -20 -32 21 -4 36 -4 36 -5 -8z"/>
<path d="M1215 4920 c-3 -5 -1 -10 4 -10 6 0 11 5 11 10 0 6 -2 10 -4 10 -3 0
-8 -4 -11 -10z"/>
<path d="M2862 5050 c0 -19 2 -27 5 -17 2 9 2 25 0 35 -3 9 -5 1 -5 -18z"/>
<path d="M2861 4994 c0 -11 3 -14 6 -6 3 7 2 16 -1 19 -3 4 -6 -2 -5 -13z"/>
<path d="M2821 4914 c0 -11 3 -14 6 -6 3 7 2 16 -1 19 -3 4 -6 -2 -5 -13z"/>
<path d="M4681 3794 c0 -11 3 -14 6 -6 3 7 2 16 -1 19 -3 4 -6 -2 -5 -13z"/>
<path d="M4690 3740 c0 -11 4 -20 9 -20 5 0 7 9 4 20 -3 11 -7 20 -9 20 -2 0
-4 -9 -4 -20z"/>
<path d="M4205 2320 c-3 -5 -1 -10 4 -10 6 0 11 5 11 10 0 6 -2 10 -4 10 -3 0
-8 -4 -11 -10z"/>
<path d="M4145 2009 c-4 -6 -5 -12 -2 -15 2 -3 7 2 10 11 7 17 1 20 -8 4z"/>
<path d="M4086 1884 c-4 -9 -4 -19 -1 -22 2 -3 7 3 11 12 4 9 4 19 1 22 -2 3
-7 -3 -11 -12z"/>
<path d="M3890 1805 c0 -5 5 -17 10 -25 5 -8 10 -10 10 -5 0 6 -5 17 -10 25
-5 8 -10 11 -10 5z"/>
<path d="M4055 1780 c-4 -12 -5 -24 -2 -27 3 -2 8 5 12 17 4 12 5 24 2 27 -3
2 -8 -5 -12 -17z"/>
<path d="M3896 1747 c3 -10 9 -15 12 -12 3 3 0 11 -7 18 -10 9 -11 8 -5 -6z"/>
<path d="M3886 1695 c4 -8 8 -15 10 -15 2 0 4 7 4 15 0 8 -4 15 -10 15 -5 0
-7 -7 -4 -15z"/>
<path d="M3880 1615 c0 -5 5 -17 10 -25 5 -8 10 -10 10 -5 0 6 -5 17 -10 25
-5 8 -10 11 -10 5z"/>
<path d="M3919 1447 c8 -19 6 -27 -5 -31 -8 -3 -14 -11 -13 -18 0 -10 2 -10 6
0 2 6 11 12 18 12 7 0 15 7 19 15 3 8 1 15 -4 15 -6 0 -9 5 -7 11 1 6 -4 14
-11 16 -9 4 -10 -1 -3 -20z"/>
<path d="M5930 2026 c0 -2 8 -10 18 -17 15 -13 16 -12 3 4 -13 16 -21 21 -21
13z"/>
<path d="M5960 1986 c0 -2 8 -10 18 -17 15 -13 16 -12 3 4 -13 16 -21 21 -21
13z"/>
<path d="M5999 1933 c6 -10 22 -31 36 -48 22 -25 22 -23 -5 18 -30 45 -51 66
-31 30z"/>
<path d="M5882 1140 c0 -14 2 -19 5 -12 2 6 2 18 0 25 -3 6 -5 1 -5 -13z"/>
<path d="M5760 1125 c0 -8 2 -15 4 -15 2 0 6 7 10 15 3 8 1 15 -4 15 -6 0 -10
-7 -10 -15z"/>
<path d="M5755 1090 c-3 -5 -1 -10 4 -10 6 0 11 5 11 10 0 6 -2 10 -4 10 -3 0
-8 -4 -11 -10z"/>
<path d="M4360 1010 c-9 -6 -10 -10 -3 -10 6 0 15 5 18 10 8 12 4 12 -15 0z"/>
<path d="M4786 988 c-9 -12 -13 -24 -11 -27 3 -3 12 5 21 17 8 12 20 20 25 17
5 -4 9 -1 9 4 0 19 -28 12 -44 -11z"/>
<path d="M3810 782 c0 -6 9 -12 20 -15 11 -3 20 -3 20 -1 0 2 -9 8 -20 14 -11
6 -20 7 -20 2z"/>
<path d="M1500 605 c-8 -9 -8 -15 -2 -15 12 0 26 19 19 26 -2 2 -10 -2 -17
-11z"/>
<path d="M1287 475 c-14 -10 -15 -14 -3 -18 8 -3 17 1 20 10 9 22 4 24 -17 8z"/>
<path d="M1230 426 c0 -2 7 -7 16 -10 8 -3 12 -2 9 4 -6 10 -25 14 -25 6z"/>
<path d="M1100 310 c0 -5 -7 -7 -15 -4 -11 5 -13 2 -9 -10 6 -16 8 -15 28 1
11 10 23 19 25 20 2 2 -3 3 -12 3 -9 0 -17 -4 -17 -10z"/>
<path d="M5790 415 c-11 -13 -10 -14 4 -9 9 3 16 10 16 15 0 13 -6 11 -20 -6z"/>
<path d="M5800 370 c0 -11 29 -40 40 -40 4 0 10 6 13 14 4 10 -4 18 -24 25
-16 5 -29 6 -29 1z"/>
<path d="M951 381 c-10 -7 -11 -13 -2 -27 6 -11 11 -13 11 -6 0 7 5 10 10 7
12 -7 13 5 2 22 -4 7 -13 9 -21 4z"/>
<path d="M594 7525 c-3 -8 -3 -19 1 -25 3 -5 1 -10 -4 -10 -6 0 -11 -8 -11
-17 0 -15 2 -16 10 -3 8 13 10 12 10 -3 0 -10 4 -16 10 -12 6 4 6 15 0 31 -13
34 -13 37 5 30 8 -3 15 -1 15 3 0 16 -31 21 -36 6z"/>
<path d="M535 7510 c3 -5 8 -10 11 -10 2 0 4 5 4 10 0 6 -5 10 -11 10 -5 0 -7
-4 -4 -10z"/>
<path d="M530 7454 c0 -8 5 -12 10 -9 6 3 10 10 10 16 0 5 -4 9 -10 9 -5 0
-10 -7 -10 -16z"/>
<path d="M632 7454 c-8 -8 -22 -12 -36 -8 -21 5 -23 2 -25 -50 -1 -30 -6 -68
-11 -85 -5 -20 -5 -31 1 -31 6 0 7 -5 4 -11 -4 -5 -4 -22 0 -36 l6 -26 20 21
c10 12 19 26 19 32 0 5 7 10 16 10 8 0 12 -4 9 -10 -8 -12 5 -13 23 -1 11 6
10 10 -5 16 -10 5 -22 7 -26 6 -5 -1 -11 7 -14 18 -3 12 -11 17 -19 14 -8 -3
-14 -1 -14 5 0 5 9 12 20 15 13 3 18 10 14 21 -3 9 -1 23 6 31 10 12 9 15 -9
15 -14 0 -21 6 -20 18 0 9 3 12 5 5 3 -7 15 -2 31 13 14 13 24 26 22 28 -2 2
-10 -2 -17 -10z m-42 -199 c0 -8 -4 -15 -10 -15 -5 0 -10 7 -10 15 0 8 5 15
10 15 6 0 10 -7 10 -15z"/>
<path d="M885 7269 c-4 -6 -5 -12 -2 -15 2 -3 7 2 10 11 7 17 1 20 -8 4z"/>
<path d="M688 7253 c7 -3 16 -2 19 1 4 3 -2 6 -13 5 -11 0 -14 -3 -6 -6z"/>
<path d="M590 7200 c0 -5 5 -10 10 -10 6 0 10 5 10 10 0 6 -4 10 -10 10 -5 0
-10 -4 -10 -10z"/>
<path d="M592 7145 c-1 -14 2 -25 7 -25 12 0 19 21 13 38 -7 20 -17 14 -20
-13z"/>
<path d="M516 6924 c-10 -25 1 -29 14 -5 6 12 7 21 1 21 -5 0 -12 -7 -15 -16z"/>
<path d="M486 6852 c-2 -4 -1 -14 5 -22 7 -12 9 -10 9 8 0 23 -5 28 -14 14z"/>
<path d="M1005 5860 c3 -5 12 -10 20 -10 8 0 12 -8 10 -19 -2 -11 3 -22 11
-25 8 -3 12 -2 9 3 -3 5 3 12 12 14 17 4 17 5 1 6 -20 1 -25 20 -5 22 6 1 1 5
-13 9 -36 11 -52 11 -45 0z"/>
<path d="M978 5833 c6 -2 18 -2 25 0 6 3 1 5 -13 5 -14 0 -19 -2 -12 -5z"/>
<path d="M1000 5796 c0 -2 7 -7 16 -10 8 -3 12 -2 9 4 -6 10 -25 14 -25 6z"/>
<path d="M1298 5738 c5 -5 16 -8 23 -6 8 3 3 7 -10 11 -17 4 -21 3 -13 -5z"/>
<path d="M1215 5650 c3 -5 12 -7 20 -3 21 7 19 13 -6 13 -11 0 -18 -4 -14 -10z"/>
<path d="M1249 5633 c-13 -16 -12 -17 4 -4 16 13 21 21 13 21 -2 0 -10 -8 -17
-17z"/>
<path d="M1025 5581 c3 -5 1 -12 -4 -16 -18 -11 -8 -45 14 -44 11 0 14 3 8 6
-21 8 -15 31 9 35 21 3 21 4 -5 16 -16 6 -26 8 -22 3z"/>
<path d="M450 5329 c0 -5 5 -7 10 -4 6 3 10 8 10 11 0 2 -4 4 -10 4 -5 0 -10
-5 -10 -11z"/>
<path d="M578 5313 c7 -3 16 -2 19 1 4 3 -2 6 -13 5 -11 0 -14 -3 -6 -6z"/>
<path d="M449 5283 c-1 -12 3 -85 6 -113 2 -14 4 -29 4 -35 1 -5 6 -3 11 5 5
8 7 22 4 32 -2 9 0 19 6 23 14 9 13 68 -2 83 -14 14 -28 16 -29 5z"/>
<path d="M575 5211 c-3 -5 -2 -12 3 -15 5 -3 9 1 9 9 0 17 -3 19 -12 6z"/>
<path d="M610 5175 c-7 -9 -8 -15 -2 -15 5 0 12 7 16 15 3 8 4 15 2 15 -2 0
-9 -7 -16 -15z"/>
<path d="M576 5107 c3 -10 9 -15 12 -12 3 3 0 11 -7 18 -10 9 -11 8 -5 -6z"/>
<path d="M927 5023 c-4 -3 -7 -11 -7 -17 0 -6 5 -5 12 2 6 6 9 14 7 17 -3 3
-9 2 -12 -2z"/>
<path d="M903 4860 c1 -11 5 -20 9 -20 11 0 10 28 -1 35 -6 3 -9 -4 -8 -15z"/>
<path d="M855 4720 c3 -5 8 -10 11 -10 2 0 4 5 4 10 0 6 -5 10 -11 10 -5 0 -7
-4 -4 -10z"/>
<path d="M590 3655 c-15 -8 -19 -14 -10 -14 18 -1 46 16 40 23 -3 2 -16 -2
-30 -9z"/>
<path d="M535 3630 c-3 -5 -2 -10 4 -10 5 0 13 5 16 10 3 6 2 10 -4 10 -5 0
-13 -4 -16 -10z"/>
<path d="M46 3574 c-26 -9 -46 -17 -43 -20 3 -3 31 4 63 15 68 23 52 27 -20 5z"/>
<path d="M245 3529 c-4 -6 -5 -12 -2 -15 2 -3 7 2 10 11 7 17 1 20 -8 4z"/>
<path d="M75 3499 c-11 -17 0 -20 21 -4 17 13 17 14 2 15 -9 0 -20 -5 -23 -11z"/>
<path d="M7400 2305 c0 -8 2 -15 4 -15 2 0 6 7 10 15 3 8 1 15 -4 15 -6 0 -10
-7 -10 -15z"/>
<path d="M7430 2310 c0 -5 7 -7 15 -4 8 4 15 8 15 10 0 2 -7 4 -15 4 -8 0 -15
-4 -15 -10z"/>
<path d="M7457 2279 c7 -7 15 -10 18 -7 3 3 -2 9 -12 12 -14 6 -15 5 -6 -5z"/>
<path d="M7070 2269 c0 -5 5 -7 10 -4 6 3 10 8 10 11 0 2 -4 4 -10 4 -5 0 -10
-5 -10 -11z"/>
<path d="M7187 2239 c7 -7 15 -10 18 -7 3 3 -2 9 -12 12 -14 6 -15 5 -6 -5z"/>
<path d="M7307 2210 c-16 -17 -27 -39 -27 -57 0 -22 2 -25 10 -13 9 13 10 13
10 0 0 -13 1 -13 11 0 8 12 10 10 8 -10 -3 -47 0 -54 15 -41 8 7 14 20 14 29
0 9 3 26 7 37 5 16 5 17 -4 5 -14 -21 -18 -10 -10 30 3 19 7 27 8 17 0 -10 6
-15 11 -12 15 9 12 23 -8 34 -14 8 -24 4 -45 -19z m13 -40 c0 -5 -7 -7 -15 -4
-8 4 -12 10 -9 15 6 11 24 2 24 -11z"/>
<path d="M7011 2094 c0 -11 3 -14 6 -6 3 7 2 16 -1 19 -3 4 -6 -2 -5 -13z"/>
<path d="M7315 2049 c-4 -6 -5 -12 -2 -15 2 -3 7 2 10 11 7 17 1 20 -8 4z"/>
<path d="M7285 2011 c-3 -10 -14 -26 -24 -35 -19 -17 -18 -62 1 -50 5 3 6 14
3 24 -6 20 10 36 20 20 4 -6 -1 -22 -10 -36 -9 -14 -15 -30 -12 -37 2 -6 15
13 30 42 17 35 20 48 10 39 -15 -12 -16 -9 -10 20 7 35 2 44 -8 13z"/>
<path d="M7236 1893 c-6 -14 -5 -15 5 -6 7 7 10 15 7 18 -3 3 -9 -2 -12 -12z"/>
<path d="M7126 1595 c-9 -26 -7 -32 5 -12 6 10 9 21 6 23 -2 3 -7 -2 -11 -11z"/>
<path d="M6983 1545 c0 -22 2 -30 4 -17 2 12 2 30 0 40 -3 9 -5 -1 -4 -23z"/>
<path d="M7096 1533 c-6 -14 -5 -15 5 -6 7 7 10 15 7 18 -3 3 -9 -2 -12 -12z"/>
<path d="M7072 1498 c-10 -14 -57 -103 -53 -103 1 0 -2 -13 -8 -28 -6 -15 -14
-39 -17 -53 -5 -20 -9 -23 -16 -12 -7 10 -8 9 -4 -5 3 -10 -1 -38 -10 -62 -15
-46 -10 -83 8 -51 5 9 6 21 2 28 -4 6 -3 8 3 5 6 -4 13 2 16 13 3 11 1 20 -3
20 -4 0 -6 9 -3 20 3 11 9 20 13 20 5 0 11 13 15 29 3 16 13 35 21 42 8 7 12
20 9 30 -4 11 -2 19 3 19 5 0 12 14 16 31 3 17 9 28 13 26 5 -3 9 6 9 19 2 27
0 29 -14 12z"/>
<path d="M6981 1484 c0 -11 3 -14 6 -6 3 7 2 16 -1 19 -3 4 -6 -2 -5 -13z"/>
<path d="M6429 1273 c-13 -16 -12 -17 4 -4 9 7 17 15 17 17 0 8 -8 3 -21 -13z"/>
<path d="M6557 1136 c-4 -10 -1 -13 8 -9 8 3 12 9 9 14 -7 12 -11 11 -17 -5z"/>
<path d="M6497 1053 c-4 -3 -7 -11 -7 -17 0 -6 5 -5 12 2 6 6 9 14 7 17 -3 3
-9 2 -12 -2z"/>
<path d="M703 851 c-3 -11 -12 -22 -22 -24 -13 -4 -13 -5 2 -6 10 0 15 -5 12
-11 -3 -5 -2 -10 3 -10 6 0 12 16 14 35 4 38 -1 47 -9 16z"/>
<path d="M574 846 c-8 -9 -8 -17 1 -30 16 -21 24 -9 16 20 -5 17 -9 19 -17 10z"/>
<path d="M546 771 c-14 -15 -15 -21 -4 -27 7 -4 10 -4 6 1 -4 4 0 14 10 21 9
7 14 15 11 18 -3 3 -14 -2 -23 -13z"/>
<path d="M605 734 c9 -9 18 -14 21 -11 9 9 -6 27 -22 27 -13 0 -13 -2 1 -16z"/>
<path d="M404 714 c-18 -14 -18 -15 4 -4 12 6 22 13 22 15 0 8 -5 6 -26 -11z"/>
<path d="M650 716 c0 -2 9 -6 20 -9 11 -3 20 -1 20 4 0 5 -9 9 -20 9 -11 0
-20 -2 -20 -4z"/>
<path d="M635 690 c3 -5 8 -10 11 -10 2 0 4 5 4 10 0 6 -5 10 -11 10 -5 0 -7
-4 -4 -10z"/>
<path d="M545 629 c-4 -6 -5 -12 -2 -15 2 -3 7 2 10 11 7 17 1 20 -8 4z"/>
<path d="M290 626 c0 -2 7 -7 16 -10 8 -3 12 -2 9 4 -6 10 -25 14 -25 6z"/>
<path d="M595 610 c-8 -13 5 -13 25 0 13 8 13 10 -2 10 -9 0 -20 -4 -23 -10z"/>
<path d="M1781 496 c-23 -24 -21 -46 2 -46 7 0 6 4 -3 10 -13 9 -11 13 10 29
14 11 22 22 19 25 -3 3 -16 -5 -28 -18z"/>
<path d="M1630 353 c-54 -56 -44 -51 34 21 22 20 36 36 30 36 -5 0 -34 -26
-64 -57z"/>
<path d="M275 370 c-3 -5 -1 -10 4 -10 6 0 11 5 11 10 0 6 -2 10 -4 10 -3 0
-8 -4 -11 -10z"/>
<path d="M1529 263 l-34 -38 38 34 c20 19 37 36 37 38 0 8 -8 0 -41 -34z"/>
<path d="M1471 197 c-13 -21 -12 -21 5 -5 10 10 16 20 13 22 -3 3 -11 -5 -18
-17z"/>
<path d="M686 129 c-11 -10 -24 -19 -30 -18 -6 0 -5 3 2 6 6 2 12 9 12 14 0 4
-7 6 -16 2 -9 -3 -14 -13 -11 -24 3 -12 -4 -26 -20 -39 -14 -11 -22 -20 -17
-20 5 0 34 22 64 50 30 27 51 49 45 49 -5 0 -19 -9 -29 -20z"/>
</g>
</svg>
